<svg xmlns="http://www.w3.org/2000/svg" viewBox="0 0 95 56">
  <path class="st0" d="M13.1 33.4l.3-.3h-.6c-.2.1-.1.3.3.3zM15.9 33.3c-.4.3-.5.1-1 .5-.4 0-.6-.2-.6-.3-.1.1-.6-.1-.8.1.5.3 1.1.4 1.7.2.1.1 0 .2 0 .2.4-.1 1-.4.7-.7zM40.5 35.1c-.2 0-.3.1-.3.1.3-.1.4-.1.3-.1zM44.3 34.2c.1 0 .2 0 .2-.1l-.2.1zM32 17.2c-.2.1-.4.2-.6.4.1.1.3-.3.6-.4zM20.2 33.4c-.1 0-.2 0-.3.1l.3-.1zM37.6 23.8v.2c0 .1.1.1.1.2l-.1-.4zM81.5 21.4zM81.5 12.7v.1h.2l-.2-.1zM49.9 28.6c-.1.2-.1.1 0 0zM61.1 14.7c.1.8-.8-1-.6.2.1-.2.8.7.6-.2zM20.4 33.4h.3-.3zM42 16.3s-.1 0-.2.1c.1 0 .1-.1.2-.1zM41 23.1v.5-.1-.4zM42.1 29.8v-.1l-.1-.3.1.4zM72 33.1c0-.2.8-.1-.2-.3.1.1.2.2.2.3zM20.2 33.6c0-.1.1-.1.2-.1h-.2c-.1-.1-.1 0 0 .1zM43.2 23.4v0zM43.5 27.1c-.1.2-.1.4-.1.5l.1.1v-.6z"/>
  <path class="st0" d="M83.1 24c-.1-1.4.9-2.5.2-4.4l-.2.3c0-.7-.4-2-.1-2-.1-.1-.2-.3-.2-.5h.2l-.6-1.5c-.2-1.2.7.1.3-1.7-.2-.7-.9-1.8-.9-1.5s.1.7-.1.8l-.2-.6c-.5 0-1-.3-1 1.2l.5 1-.2.4-.2-.8c-.1.4.1.8.3 1.1-.1.1-.2.3-.2.5l.6.9c-.2.2-.4-.4-.4.3.3.4.3-.5.6.2-.1.5-.3.4-.1.9-.1.1-.2 0-.3-.2.2.5.2 1.3.5 1.5-.2.5.2 1.7-.2 1.7.2.4.3.9.4 1.4-.3-.4-.3 0-.3.5s-.1 1-.4.9c.4.7-.1 2.2-.3 3.2v-.3c-.2.3-.4.7-.7.9.3.2 0 1.1-.2 1.7-.6.1 0-.9-.4-.9.1.1 0 .4-.1.7s-.2.5-.1.5c-.5.3-.4.3-.8.3.3.4-.3.4-.4.9-.8.3-.4-.2-1 .4-.4.1.1-.5.1-.5-.7.5-.1.5-.2.8-.8.6-.6 0-.9 0-.5.4-.8.8-1.3.9 0 0-.1 0-.1-.2-.4.2-.8.3-1.3.3s-1 0-1.4.1l-.1-.1c.1.2.1.4 0 .5-.4-.1-.8 0-.9-.3.2.1.3 0 .4 0H71l.2-.2c.2 0 .4.1.5 0l-.4-.1c.2-.2.4-.5.6-.8.5-.9 1.1-1.8 1.8-2.7.2-.6.3-1.2.3-1.7l.3.1c.4-1.3.6-2.7.5-4.1l.2.4c0-.4-.2-.8-.5-1.2-.3-.3-.5-.6-.6-1l.4-.3c-.3-1.7-.6-3.6-1.8-5 .1 0 .2 0 .3.2l-.9-1.8c-.4-.5-.8-.9-.9-.6.3-.2-1-1.5-2.1-2l.3-.1c-.4-.1-.7-.2-1.1-.2-.4-.1-.9-.1-1.3 0-.3 0-.3-.2.1-.2-.3 0-.7.1-.9.3l-.9.6c.1-.1.2-.3.3-.4-.9.6-.7.7-.9 1.2s-.9 1.6-1.1 1.7c.2.4.2.8.1 1.2-.1.1-.2-.1-.2-.2-.3 1.6.3 2.2.1 3.2-.1 0-.1.1-.2.2-.1-.7-.1-1.3 0-2-.3 0-.3 1-.7.2.4.9.6 1.9.7 2.9 0 0 0 .1-.1.1v-.1c0 .2 0 .4.1.6v.8c-.2.1 0 1.1.1 1.6.3-.1.3.5.5-.1 0 .1 0-.1-.1-.4 0-.1 0-.1-.1-.2 0-.3-.1-.7-.2-1.2.2.4.3.8.3 1.3.2.2.4.5.5.6-.3.7-.2 2-.4 2.2.3.8.6 1.5 1 2.2.3.6.8 1.2 1.4 1.6.3.3.2.5.2.7-.2-.2-.3-.4-.5-.5.3.3.7.8 1.1 1.2s.8.7 1 .6c.6.7-.3.1.1.5-.1 0-.1-.2-.5.2.2 0 0 .2 0 .3-.8.2-1.5.5-2.2.8l.1-.2c-1.4.4-3 .5-4.4.2.5.2.3.6-.2.5 0-.1-.1-.2-.1-.4-.3.1.4.3-.2.3-.6-.2-.2-.5.1-.5-.2 0-.5-.1-.7-.2 0-.1.2-.1.3-.2-.2 0-.4-.2-.6-.4s-.5-.5-.8-.4v-.1l-.5-.4c.2-.2.4-.5.6-.7h-.2c.3-.9.7-.4 1-1.3h.2c.2-.3.3-.8.5-1.3s.4-1.1.5-1.6c0 .9-.2 1.8-.6 2.6.4-.6.7-1.4.8-2.1 0 .3-.1.5-.2.7.1-.9.2-1.8.5-2.7.3.2.6-.5.7-1.4.1-.8.2-1.6.5-2.3-.3-2-.3-4.1-1.1-6.3-.3 1-.3-.6-.8-.3-.1-.2-.2-.5-.3-.7v.1-.1c-.1-.5-.3-1-.5-1.5-.1-.5.4.4.5.3-.3-.6-.4-.8-.4-.9s.1-.2-.3-.7c0 .4-.6-.3-1.7-.7.5.2.9.5 1.2.9-.7-.4-1.4-.6-2.1-.8-.7-.2-1.5 0-2 .5.2-.2.4-.3.6-.5-.8.4-1.6 1-2.1 1.7s-.7 1.5-.6 2.3c-.1.1-.3.3-.3-.1-.3 1.1-.4 2.2-.3 3.3 0 1 0 1.9-.1 2.9l-.2-.2c0 .4.3.7.1 1.1-.1 0-.2-.2-.2 0 .2.5.2 1 .2 1.5-.1-.1-.1-.3-.2-.4-.1 2 .7 3.1 1.2 4.7-.5.1-.1 1.7.2 2.5h-.1c.2.5.5 1.1.9 1.5-.9.5-2 .8-3 .8-1.3.1-2.5-.1-3.7-.3.2 0 .2-.1.4 0-.3-.2-.6-.3-.9-.5.6-.6 1.2-1 1.5-1.5l-.3.6c.2-.3.3-.6.5-.8l-.4.2c.2-.3.4-.5.5-.5 0-.4-.5 0-.3-.7.3-.4.5-1.3.8-1.4-.7 1.3.4 0-.1 1.2.1-.3.2-.6.4-.8v.2c.4-.6.4-.8.3-1-.1-.4-.1-.8 0-1.2.1.2.4-.3.4-.5-.1.6-.3.2-.4-.3.2-.9 0-1 0-1.5v.7c-.2-.2-.2-.7-.3-1.3 0 0 .1 0 .1.1-.2-.7.2-1.5-.3-2.3 0-.5.3-.1.2-.6-.6-1-.2-1.3-1-2.3 0 .4.1.4-.6-.2.4.5.8 1.1 1.1 1.6-.3-.3-.6-.7-.9-1 .3.4.6.9.8 1.4-.4-.5-.3-.4-.4-.1 0-.9-.9-1.3-1.2-2.1l.5-.3c-.3-.6-.8-1.1-1.4-1.5-.3-.3-.7-.5-1.1-.6-.5-.2-1.1-.3-1.7-.2.3 0 .6 0 .8.1-.2.1-.5.1-1 .2-.4.1-.8.3-1.1.6-.1-.2-.5.1-.8.3.1 0-.2.3-.3.7s-.2.8-.1.9c-.2.2-.3.5-.5.7-.2.5-.2 1.1 0 1.6s.2.9.2 1.4c-.2-.4-.4.2-.5-.7 0 .4-.1.8.1.8-.1.3.2 1.2.1 1.7.1.2.3.2.3.8 0 .1-.1 0-.1 0s.2.8.4.3c-.2.9-.2 1.7 0 2.6.2.8.4 1.6.5 2.5.5 1 1.2 1.8 2 2.6-.1 0-.1.1-.2-.1.1.1.2.3.3.4-.1.1-.2.1-.4.2.2-.6-.5.2-.8-.2-.2.2-.5.3-.7.4h.4c-.6.4-1.3.6-2 .7l.5-.2c-.5.1-.9.2-1.4.2.3 0 .5.1.8.1-.8.3.1.5-.9.5.2 0-.8 0-1.2-.3-.5.1-.9 0-1.3-.2-.1-.2.3-.3.2-.5-.4 0-.7-.1-1-.3-.3-.2-.7-.4-1.1-.5.2 0 .3-.1.3-.2h-.4c.1-.3.1-.3.2-.4-.7-.8-.1.6-.8-.5.1.1.1 0 .2.1-.4-.5-.7-1-1.1-1.5.5-.5.9-1 1.3-1.5 0 .1.4-.3.8-.8s.8-1.1 1.1-1.6c-.1-.2-.1-.5 0-.9l.3-1.2c.2.1.3.2.2.7.1-.2.2-.5.2-.7-.1-.3-.1-.6 0-.9l.2.2c.1-1.1 0-2.2-.1-3.3-.3 0-.5 1.1-.9-.1.1-.1.3-.2.5.1-.1-.2-.2-.4-.2-.6l.4.4c-.1-.6-.3-.2-.4-.7.2-.1 0-.4.2-.4s.1.4.2.6c-.1-.5-.4-1.2-.4-1.4-.1.1-.2.2-.5-.1s-.3-.4-.3-.5.1-.1-.2-.4c-.3-.1-.9-.4-1-.2-.3-.1-.3-.2-.5-.3-.5 0-1 0-1.5.2s-.8.4-.4.4h.1-.1c-.8.5-1.3 1.3-1.5 2.2-.2.8-.2 1.7-.1 2.5h-.1c.1.9.2 1.8.4 2.7 0 .3-.1.7-.2.6.2.6.3 1.2.3 1.8-.3-.7-.1.3-.3-.7 0 .8.1 1.5.5 2.2-.4-.3-.1.8.2 1.2 0-.2-.1-.5-.1-.7l.6 1.3-.4-.1c0 .1.1.3.1.4l-.6.6c.7-1 0-.3-.1-.6-.3.1-.7.3-.6.1-.3.5-.9.3-1.4 1-.1-.1-.5.2-.5 0-.4.5.4.3.4.4-.9.8-2.5.6-4 1.3-.9.4-1.9.8-2.8 1.1-.5-.1.3-.4.3-.4-.6-.1-1.3 0-1.9.1.1-.1 0-.2-.2-.3-.5 0-.4.4-1.1.2.2-.2.3-.3.5-.4-.6.1-1.2.3-1.9.3-.2-.2.4-.2.6-.3-.7 0-1.5.1-2.1.3l.5.1c-.3 0-.1-.2.1-.3.6-.2.9.1.9.2h-.5c.5.6 1.9 0 2.8 0l-.4.4 1-.4c.2.1.4.3-.1.4.7.2.6-.2 1.2 0 .1 0 0 0 0 .1l.7-.2c-.1.1.1.3-.3.3 1.2.1 1.9-.5 2.4-.3h-.1c1.6-.5.1-.3 1.2-.9l1 .5.1-.3c.2 0 .5-.1.5 0 .5-.4-.1-.1.1-.4.9 0 2-1 2.4-.6.2-.3-.8.2-.1-.3.5.3.9-.6 1.6-.8 0 .4-.7.6 0 .4.1-.3.4-.5.7-.7l.1.2c-.3.3 0 .2.1.1.3.4.6.7 1 1 .7.5 1.3 1.1 1.8 1.8.6.1-.8-.8-.3-.7.5.6 1.1 1.1 1.7 1.6.4.2.9.3 1.3.2.4-.1.9-.1 1.4-.1-.2-.1-.3-.4.7-.6s1.2.3.6.5h-.3c-.3.1-.7.1-.3.2l.1-.1c.5.1 1.8-.2 1.5.1.7-.3.3-.2-.3-.2 1.1-.2 2.1-.5 3-1-.2 0-.4 0-.3-.1.8-.4 1-.5 1-.7 0-.1.1-.3.2-.4.1.1.2.2.4.3.5.7-.7-.3-.4.1-.1.3.3.6.8.8.3.1.5.2.8.3.3.1.5.2.8.4h-.2c.7.5 1.9.2 3.1.3 0 0-.1.1 0 .1.8-.3 2.4-.6 3.4-1-.3.3-.5.3-.2.5.5-.2-.2-.4.7-.7.3 0 1.1-.2 1.3 0l-.9.4c.5 0 .9-.2 1.2-.5.7.5 1.4 1 2.2 1.3.8.8 1.9 1.2 3 1.4 1.3.2 2.7.2 4 0-.4 0 0-.3.4-.5.6-.1 1.3-.7 1.3-.3l-.2.1c.3.1.7 0 1-.2l1.2-.6-.2-.5c.4-.1.7-.2 1-.4l.2.1-.3.3c.1-.1.3-.2.4-.4.5.2 1 .3 1.6.3 1.4 0 2.8 0 4.1-.2h-.4c1.8-.4 3.4-1.4 4.6-2.9 1.2-1.4 2.1-3 2.9-4.7.3-.5.3-1.2.1-1.8l.3-.2c.2.1.1-.3 0-.6zm-20-.8c-.1-.3 0-.4 0-.5v.5c.1.1.1.1 0 0zm1.5-3.6c.1.1.1-.3.2-.7v.8c-.1.2-.2.1-.2-.1zm-31.5 9.7c-.2-.3-.3-.7-.4-1 .2-.3.3.2.4.5l-.1.1.2-.1.1.1c-.1.1-.2.3-.2.4zm.1-.6c-.8-1.5-1.2-3.2-1.4-4.9v.3c-.5-.2.2-1.3-.1-2.2 0 .2.3.3.2.2 0-.6 0-1.3-.1-1.9-.1-.7-.1-1.4.2-2v.2c.2-.2.5-.4.7-.5.3-.1.7-.2 1-.1.2-.1.5 0 .4-.3.4.2.8.5 1.1.9.3.3.6.7.9 1.1.5.9.6 1.9.3 2.8 0-.2-.1-.5-.1-.4 0 .5 0 1.1-.1 1.6.2-.1.2-.2.4-.5.1.4.1.8 0 1.2.1-.8-.3-.1-.6.2.1 0 .1.1.2.1-.7.7.4.3-.4 1.3l-.1-.1c-.1.5-.3.9-.5 1.3-.3 0 .2-.5 0-.6-.3.6-.3 1.5-1 1.8.2-.3.4-.6.5-.9-.4.2-.7.5-1 .8-.2.1-.3.2-.5.4l.1-.1-.1.3zM46.6 30c0-.1-.1 0 0-.2-.3.5-.7 1-1 1.4-.2-.1-.4-.3-.4-.5s0 0 .1 0c-.3-.3-.7-1-.8-.7-.5-.7-.8-1.5-1-2.3-.5-.4-.2-1.6-.6-1.7.4 0 .2-1.7 0-2.4.1.2.1-.6.3-.3 0-.7-.1-1.4-.3-1.3.2-.6.3-1.3.1-2 0-.5 0-1 .4-1.2.1-.4.2-.8.4-1.2.1-.2.3-.4.5-.5.3-.1.5 0 .8.1.4.3.7.5 1 .9-.2.1-.5-.2-.9-.5s-.6-.3-.6-.1c.3.1.5.2.8.4.3.2.6.4.8.6.6.5 1 1.1 1.3 1.8.1.4-.3-.2-.4-.2.8 1.4 1.3 3 1.3 4.6 0 0-.1-.2-.1-.3 0 .3-.1.7.1.7v-.3c.2-.2.3.1.4.5.1.3.1.6.2.9-.2-.3-.3.1-.5.4s-.3.6-.5.1c0 .2 0 .5.2.5-.1.3-.2.3-.3 0-.1.3-.1.6-.1.9 0 .3-.1.6-.2.8-.1 0 0-.2-.1-.4-.2.4-.4 1.1-.9 1.5zm10.1.6c-.1-.2-.2-.4-.4-.6-.3.1-.5-.4-.8-.7-.3-1.1-.5-2.2-.6-3.3-.3-.8-.3-.2-.5-.6.2-.1.1-1.3.3-.7-.2-1.5-.2-1.9-.4-3.9-.1.2-.2.5-.2.3 0-.4.1-.8.3-.8v.1c-.1-1.2.1-2.4.5-3.5.3-1.2.8-1.9 1-2.5v.1c.2-.4.5-.8.8-1 .6-.2-.2.3.2.3 1.2-.7 1.3.2 2.2 1.6.1.9.3 1.8.7 2.7.4.9.5 2 .4 3l.2-.1c.2.4 0 .5-.1.8.2 0 .1-.5.2-.2.2 1.8-.1 3.6-.8 5.2-.8 1.5-1.8 2.8-3 3.8zm8.2-9.7l.1.5-.1-.5zm3.1 12v-.2h.1l-.1.2zm1.6-1.4c-.2-.2-.4-.3-.6-.5-.3-.1-.1.3-.5.2-.5-.3-.8-.8-.8-1.4 0-.4-.1-.8-.5-1.1-.3-.2-.8-.1-1-1.1l.5.2c-.4-1.2-.8-.5-.9-1.8.2.2.4.9.4.7 0-.9-.4-.5-.6-1.2l.3-.2c-.5-1.4-.8-2.9-1-4.4.1.1.2.3.3 0-.3-2-.3-4.5.5-5.4v-.6c.1-.1.2-.1.2.1.4-.3-.1-.2 0-.4s.4-.1.3.1c.3-.4.8-.6 1.3-.5.7.3 1.2.9 1.5 1.5v-.2c.2.3.5.6.8.7.3.1.6.4.7.8l-.1-.1c.6 1 1.1 2 1.5 3.1.4 1 .5 2 .4 3 .2.1.2.7.2 1.2s0 1 .2 1.1c-.1.4-.3.8-.5 1.1-.1.3-.3.6-.6 1.4-.2.4.1.8-.1 1.3l-.1-.1c0 .3 0 .6-.1.8l-.5.2-.2.5c.1-.2.4-.3.4-.2-.3.5-.8.9-1.4 1.2z"/>
  <path class="st0" d="M50 23.6c0-.1-.1-.2-.1-.3 0 .2 0 .5.1.3zM63.6 23.8v.1-.1l-.1-.2.1.2zM32.3 17zM71.3 28.9v.1l.1-.2zM36.1 24.5l-.1.1.1-.1zM31.2 30.4v.1-.1zM48.2 24.3v-.1.1zM38.5 34l.5-.1c-.2 0-.4-.1-.5.1zM43.2 23.3v.1zM39.8 33.9h-.7c.2.1.4.1.7 0zM16.9 33.3h.2-.2zM16.9 33.3h-.2c.1.1.2.1.2 0zM16.3 33.4h.4-.4zM21.7 33.3c.2-.2 1 .2 1.3 0h-1.3zM29 33c-.4.2-.8.2-1.2.4.2 0 .5.1 0 .3 1.7-.3-.3-.1 1.2-.7zM30.9 25.3h-.3c.1.5.1 0 .3 0zM33.8 33.2c.2.2.5.4.8.6-.2-.1-.4-.3-.6-.4l-.2-.2zM41.4 28.7l.2-.2c-.1-.3-.4-.3-.2.2zM58.8 31.8c.4-.1.7-.4.9-.8-.4.4-.8.6-.9.8zM19 43.6h.1c0-.1.1-.2.1-.2l-.2.2zM19 43.3c0-.1 0 .1.1-.1s0-.3-.2-.2c0-.1.1-.1.1-.2-.2.2-.3.4-.4.6.2-.3.1-.1.4-.4.1.1.1.2 0 .3zM15.3 40.1V40v.1zM18.1 43.3zM16.5 40.6zM21.9 26.2v.1zM12.6 36.8s.1 0 0 0zM8.1 32c.2.1.4.3.7.4-.3-.1-.3-.2-.7-.4zM10.3 35.2c0-.1 0-.1 0 0zM9.8 34.5zM18 26.3c0 .1.1.1.1.2-.1-.1 0-.2-.1-.2zM18.1 43.3c0-.1 0-.1 0 0 .1-.1 0 0 0 0zM8.2 36.2c0-.1.1-.1.1-.2l-.1.2z"/>
  <path class="st0" d="M18.4 43.3c.2 0 .3-.1.4-.2V43l-.1.2s-.1-.1 0-.2h.1c.2-.5-.3 0-.4-.1l.2-.3-.3.2c0-.1.1-.3.2-.3 0-.2-.1.1-.1-.1v-.1l-.1.1c.1-.1.1-.3.1-.2 0-.3-.4.2-.3-.2-.2 0-.2.3-.5.5l.3-.7-.1.2v-.2c-.2.1 0 .1-.2.3 0-.3-.3 0-.1-.5-.1.2 0 .2-.2.3.2-.5-.2 0-.1-.2s.2 0 .2-.3c-.3.4-.1-.2-.2-.2s-.1.1-.1.1l.1-.1.1-.2s-.2.2-.2.3-.1-.1-.3-.1c.1-.1-.1-.3-.1-.5-.2.3-.3.2-.4.2l.3-.3h-.1c0 .1-.1.1-.2.1l.2-.2c-.1-.1-.4.1-.4-.1-.1.2-.3.7-.5.7.1-.1.2-.3.3-.3s-.1.1-.1 0l.2-.2c0-.1-.1.1-.2.1s0-.1.1-.3 0 .1.1 0v-.3c-.1.1-.1.2-.2.2s.1-.2.1-.3c-.1.1-.1-.1-.2.2 0 0 0-.1.1-.2-.1.1-.3-.1-.4.2-.3.1-.2-.4-.5-.4l.1-.1c-.2 0-.2-.1-.4 0 0 0 0-.2.1-.3-.1 0-.2.1-.2-.1.2-.1.1-.1.1 0 0-.1 0-.3-.2-.1.2-.2.1-.3 0-.3v.2c-.1 0-.1-.1-.1-.1l.2-.2c.1-.5-.8.3-.5-.4-.2.1 0 .2-.2.4-.1-.1.1-.5.1-.6 0-.2-.4.3-.5.1-.1.1-.2.4-.4.4s.2-.5.3-.5 0 0 0 .1c.1 0 .1-.1.2-.1l-.1.1c0-.1-.1-.2.1-.3-.1 0-.2.1-.2.2 0-.2-.2-.2-.2-.3 0 .1-.1.2-.1.2-.1-.2-.2.1-.4 0 .1-.2.3-.3.1-.3 0-.2.2-.2.3-.3-.2.1-.1-.3-.1-.4h0l-.1.2v-.2c-.1.1-.2.3-.4.4 0-.1-.2 0 0-.3.1.2.2-.2.3-.2 0 0-.1 0-.1-.1h.1c.1-.3-.3.2-.4.1.1-.1.2-.3.2-.3s-.4.3-.5.4c0-.2-.2 0-.2-.1v.1c-.1.1-.2.1-.3 0 .1-.1.1 0 .1-.1-.3.2.1-.4-.1-.3 0-.1.2-.2.2-.3-.3.1.1-.3-.2-.2-.1.2-.1.2-.3.2h.3l-.4.1h.2c-.2.1-.1 0-.3.2.2-.3-.3 0-.2-.2l.4-.4c.1-.3-.4 0-.5-.3v.2c-.2.1-.1-.1-.2-.1.1-.1.2-.2.2-.3-.1.1-.1-.1-.4.1l.1-.2c0-.2-.6.2-.6.1.2-.1.2-.3.4-.3 0 0 0-.1-.1 0 .1-.1-.3.1-.2-.1-.1 0-.2.2-.3.1l.1-.1c-.1.1-.2 0-.3.2.4-.5-.4-.3 0-.8-.1 0-.2-.1-.4-.2.1 0 .1-.1.1 0 0-.2-.5.3-.4 0s.2 0 .2-.2c.5-.4-.2-.1 0-.4.1-.2-.3 0-.4-.2H9c-.2.1-.5.1-.7 0 .2-.1.1 0 .3-.2-.1 0-.3.3-.5.2.1-.2.2-.3.4-.4h.1c.3-.2-.1 0 0-.1l.2-.1c-.1 0-.5.1-.5 0h-.2c-.4 0 .2-.1-.2-.1l.4-.1c-.2 0-.5-.1-.7-.2.4 0 .6.1.8.1 0 0-.1-.1-.3-.1h.1c-.4 0-.6-.1-.7-.2 1 .1.1-.2.9 0-.5-.2.2 0 .2-.1-.8-.3 0 0-.7-.4H8c.2.1.3.1.5.2s.1.1.3.2c.2.1.3.2.4.3-.2-.2-.3-.2-.2-.2l-.3-.2c-.2-.3.5.4.2.1l.1.2c-.1-.1-.2-.3-.2-.4.1.1.1.2.1.2v-.1c.1-.1.1-.1.1-.2.4 0 .5-.1.6 0v.2c0-.1 0-.3.1-.2s0 .2.1.2 0-.3.1-.2c.3.1.2-.5.4-.7.1.2.3.4.5.5v.1c.3 0 .3-.5.5-.8.3.4.6 0 .9.1-.1-.1-.1-.2-.1-.4.1.1.1-.3.2 0 .2.3.3.2.4.2l-.2-.5c.5.6.5-.5.9.1 0-.2.1-.2.1-.3l.1.3c.2 0 .3 0 .5-.1v.2c.1 0-.1-.8-.1-.9l.2.4c.2-.1.5.2.6-.2 0 .1.1.2 0 .2s.5.1.2-.4c.1.3.2 0 .3-.2l.1.3c0-.4-.1-.5 0-.6 0 0 .1.1.1.2.1 0 0-.3.1-.2v.2c.1 0 .1-.1.1-.3s.2 0 .3.2c0-.2-.1-.4 0-.3v.2c.2.1.1-.4.4-.2 0 .1 0 .1.1.2-.1 0-.3.1-.2 0 .1.2.2.2.3.6 0-.2 0-.7.2-.6v0c0-.1.1 0 .1 0 .1.2.2.1.2 0-.1-.3 0-.2-.2-.4v.1l-.1.1c0-.2 0-.3.1-.2l.2-.3c.2.3.4.5.5.7.1-.2.4-.2.3-.8 0-.1.1.1.2.2s0 .1 0 .1c0-.2.3-.2.2-.5.2.1 0 .3.2.2v.1c.5.4.2-1.1.8-.5l-.1-.1c.5.2.7-.6 1.3-.3.1 0 .1-.2.1-.4l.1.3V27c.1-.3.6.6.6 0l-.1-.2c.1 0 .2-.2.3 0v-.1l.1.2.1-.3c.2 0 .2.6.4.5.1-.2.1-.4 0-.6l-.2-.2v-.1c-.1-.4-.3-.8-.6-1.1v.3l-.1-.2h.1c-.1-.2-.1 0-.1.2 0-.1-.1-.1-.1-.2v.5c-.1-.4-.1-.6-.3-.7 0 .2.2.4.1.5-.1-.2-.2-.3-.2-.2 0-.1-.1-.2-.1-.2 0 .2-.1.1-.1.4-.2-.2-.2.2-.3-.3v.4c-.1-.5-.2.1-.4-.5.1.5-.2.3-.3.6v-.1s-.2-.1-.2-.2c.1.2.1.5.1.8-.2-.3-.1-.5-.3-.8.1.3 0 .4.1.6l-.3-.3c.2.5 0 .1 0 .4-.2-.2-.2-.4-.2-.2-.1-.1-.1-.2-.1-.3-.1 0 .1.4.1.6-.1.2-.2-.2-.3-.4 0 .1 0 .5-.1.5 0 0-.1-.1-.1-.2 0 .3-.3.1-.2.5v-.1c.1.2.1.3.2.5 0 0 0 .3-.1 0v-.2.2c-.2-.3 0-.1-.1-.4-.1.2-.1.5-.2.4-.1-.3.1-.2-.1-.4l.2.1c-.3-.5.1 0-.2-.5-.2 0-.1.2-.3.2 0 .2.1.3.1.5-.1.4-.5-.7-.5-.2 0 .2.2.6 0 .5v-.5c-.2 0 .1.5-.2.4 0-.2.1-.2 0-.2-.2-.2 0 .2-.1.3l-.1-.4c-.2.1-.3.4-.4.6 0-.1 0-.2-.1-.3-.2.2-.5.2-.9.1v.3s-.1-.1-.1-.2.1.2.1.3-.1-.1-.1-.2c-.1.3-.3.7-.6.5-.2-.1.1.6-.2.4v-.1c-.3 0-.6.4-.9 0 .1.4-.4-.1-.2.5-.3-.2-.3-.3-.6-.4-.1 0 0 .4 0 .5l-.1-.3v.3l-.2-.3v.1s.1.1.1.2-.4-.1-.4-.2V28.5c0 .3-.1-.3-.2 0 0 .1.1.2.1.2-.1-.1-.2-.1-.3-.1 0 0-.1 0-.1.1l-.1-.2c-.2 0-.4.3-.6.3.1.1.2.4.2.5l-.1-.3c0 .2.1.1.1.3-.1 0-.2-.3-.2-.4l-.1.1c0-.1-.1-.2-.1-.3 0 .2-.3-.2-.2.1v-.1c-.2.1-.3.2-.5.3.1.3 0 .2 0 .5-.2 0-.4-.2-.5-.1s.1.2.1.4c-.1-.2-.2-.2-.2-.3-.2.1-.3.2-.4.4.1.2.1.3.1.4s-.1-.1-.2-.2c-.1.2-.3.1-.5 0s-.7-.1-.7.2c-.1.1-.1.2-.2.4-.2 0 0-.2-.3-.3-.1.5-.7.2-.8.5-.3-.2-.7-.1-1 .1-.1.1-.2.1-.3.2h-.2s0 .1-.1.1l.3.1c.3.2-.1.1-.1.1.2 0 .2 0 .3.1.3.3.5.7.6 1.1.1.4.3.8.4 1.2.2.3.9-.2.8.3l-.3.1c.4.2.5.3.6.5.1.2.3.3.5.4-.1 0-.2.1-.2.1-.1.2.2.2.3.1 0 .1-.1.1-.2.2s.4 0 .2.2h-.1c.1 0 .1.2.3 0 0 .2.3.1.2.3.3-.1 0 .3.4 0-.4.3-.1.4.1.3-.1.1-.1.2-.2.2.1.1.2.1.4-.1-.3.5.6 0 .1.5.3 0 .7.1 1 .3-.3.3-.2-.2-.6.2.3.1.7-.1.8.2 0 .1-.2.1-.2.2.3 0 .3.4.7.4h-.1s0 .1.2 0h-.1c.2-.3.6-.3.7-.4-.5.4.1.3-.5.7.1 0 .2-.1.2-.2 0 .1 0 .1-.2.2.2 0 .3-.2.4-.1l-.2.2c.2-.1.4-.2.4 0s-.1.1-.1.1c.2.1.6-.1.7.2-.3.3 0 .2-.3.4h.1l.1-.2c.1.1.3-.1.3.1l-.2.1.2.1v-.2c.2-.1.3-.4.3-.2 0 0 .1.1 0 .3.1-.1.2-.1.2 0s-.3.3-.3.4c.2-.2.2.1.5-.1-.1.1-.2.1-.2.2l.2-.2c0 .1 0 .1-.1.2.1.1.3-.4.3-.1l-.1.1c.1.2.4.1.4.3-.2.3-.2 0-.3.3.2.1.7-.1.8.2v-.1c.3-.4 0 .3.2.2-.1 0-.1.1-.2.2.1.2.3.1.6.1l-.1.1c0 .2.2.2.2.3.1-.1.1 0 .2-.2-.2.8.7 0 .6.7l-.1.1h.3c.1-.2 0-.1.1-.3s.2-.2.3-.1c-.2.1-.2.3-.2.4 0-.1.1-.1.1-.2-.1.4.3-.4.3-.1l-.1.1c.1 0 .2-.1.2-.1-.1.2-.1.1-.2.3.1 0 .4-.3.4-.1-.1 0-.1 0-.2.1-.1.3 0 .2 0 .3l.1.2v-.1c.5-.5.3 0 .6-.3-.4.3-.1.2-.3.5 0 .1 0 .2-.1.3.2-.2 0 .2.3 0 0 .1.1 0-.1.2.1 0 .1-.2.1-.3.3-.2.1.5.5.2.2-.1.4-.3.7-.4 0 .1-.1.2-.2.3 0 .2.1.2.2.1-.1.1-.1.2-.1.2.1 0 .2-.3.2-.1.1-.1 0 0 0 .1l.3-.3-.3.3zm-1.2-14.2v.1h-.1l.1-.1zm-.9-1.7zm-.2.1c0 .1.1.2 0 .2s-.1-.1-.1-.1l.1-.1zM17.1 28.8zM15.3 40.1zM12.6 28.3v.1-.1zM16.8 42.4zM10.6 38.2c-.1 0 0 0 0 0z"/>
  <path class="st0" d="M12.7 39.2l-.1.1c0-.1 0 0 .1-.1zM8.6 36.6zM12.5 39.2s0 .1 0 0c.1 0 0 0 0 0zM18.5 43.6zM18.6 43.5zM17.8 43.1s0 .2.1.2v-.1c0 .1 0-.3-.1-.1zM18 41.5c0-.4-.1.2-.2.1l.1.1c0-.1 0-.2.1-.2zM17.5 41c-.1.1-.1.1-.1.2s.1-.1.1-.2zM14.6 39.3l.2-.2c-.1 0-.1.1-.2.2zM13.3 40l-.1.2.2-.2zM14.1 38.3H14h.1zM10 34.5l-.2.2c.1 0 .4-.2.2-.2zM8.4 33c.2-.1.3-.1 0 0 .1-.1 0 0 0 0zM12.9 31v-.1z"/>
</svg>
