<svg xmlns="http://www.w3.org/2000/svg" viewBox="0 0 100 94.2">
  <path d="M84.5 13.5c-2.6 3.6-5.3 7.2-8.1 10.7C61.9 9 36 10.9 18.6 19.4c-1.7.8-.2 3.4 1.5 2.6 17.6-8.6 39.2-9 54.4 4.7-10.1 12.7-20.8 25-31.2 37.5-4.5-4.6-6-12.1-6.9-18.2-.6-4.4-7.2-2.5-6.6 1.8 1.3 9.1 4.4 18.7 12.2 24.1 1.2.8 3.2.6 4.2-.5 10.9-13.2 22.2-26 32.9-39.4 8.3 12.9 2.2 30.5-8 41.2C60.5 84 43.3 87.1 29 83.4c-24-6.3-17.5-32.5-6.9-47.7 1.1-1.6-1.5-3.1-2.6-1.5-10.8 15.5-17.1 37 1.7 49.1 15 9.6 37 4.1 49.9-6.2 14.2-11.4 19.2-32 9.7-47.3 3.3-4.2 6.6-8.4 9.7-12.8 2.6-3.7-3.4-7.1-6-3.5z"/>
</svg>
