<svg xmlns="http://www.w3.org/2000/svg" viewBox="0 0 100 90">
  <path d="M9.4 41.8C8.8 22.8 31.9 12.2 48 11c16.7-1.3 35.6 5.3 42.4 21.6C101 58 56.4 66.2 40 66c-.4 0-.8.3-.8.8v.3c0 .3.2.6.6.7.3.1.7.2 1 .3-.1-.4-.2-.8-.3-1.3-4.6 4-9 8.2-13.8 11.9.4.2.8.4 1.1.6.7-6.2.2-12.9-4.5-17.5-2.7-2.7-6.5-4.1-9.3-6.6-3.7-3.2-3.7-7.8-4.8-12.1-.1-.3-.4-.5-.7-.5h-.4c-1 0-1 1.5 0 1.5-.9 0 1.2 6.6 1.4 7.1 1.4 3 3.3 5.2 5.9 7.1 3.3 2.5 7 3.9 9.3 7.6 2.4 3.8 2.1 9.1 1.7 13.4-.1.5.7 1 1.1.6 5-3.8 9.5-8 14.2-12.1.5-.4.2-1.1-.3-1.3-.9-.3-.5.8.9.8 1.6 0 3.2-.1 4.8-.3 3.1-.3 6.2-.7 9.3-1.3 7.3-1.3 14.4-3.4 21.1-6.6 11.1-5.3 20-15.7 14.1-28.3-8-17.3-28.2-23.2-46-21.4C29.3 11.3 7.3 23.2 7.9 41.8c0 1 1.5 1 1.5 0z"/>
</svg>
