<svg xmlns="http://www.w3.org/2000/svg" viewBox="0 0 48 50">
  <path d="M28.8 41.5c.1 5.7-7.3 4.6-10.6 4.6-4.8 0-12.7 1.3-14.7-4.8-.9-2.9-.4-7.1-.4-10.1-.1-3.9-.1-7.7-.2-11.5v-3.8c0-3.3 4.5-2.5 6.2-2.5h11.3c1.9 0 9.6-1.1 9.7 2.1.2 3.7.3 7.3.5 11 0 .8 1.3.8 1.3 0-.2-4.3-.4-8.6-.5-12.8 0-1-.5-1.5-1.5-1.5-5 0-10 0-15-.1-3.9 0-8.6-.8-12.4.2-.2.1-.4.2-.4.4-.7 2.8-.2 6-.2 8.8 0 3.8.1 7.7.2 11.5C2 38.2 1.2 43.2 6 46.1c4.3 2.6 12.1 1.2 16.9 1.2 3.8 0 7.2-1.7 7.2-5.8 0-.8-1.3-.8-1.3 0z"/>
  <path d="M30.9 27.2C34.1 26 37.7 24.3 41 26c4.5 2.3 6.8 9.8 3.3 13.6-2.7 2.9-9.5 4-13 2.2-3.5-1.9-6.8-14.2-.2-14.4.8 0 .8-1.3 0-1.3-6.4.1-5.3 9-3.6 13.1 2.5 6 9.5 5.1 14.5 3.2 6.1-2.2 6.3-8.1 3.7-13.1-1-2-3-4.3-5.1-5-3.4-1.1-6.8.5-10 1.7-.8.3-.5 1.5.3 1.2zM1.6 8.7c6 .6 12 .1 17.9.7 3.2.3 8.6 1 11.3-1.4.2-.1.3-.4.2-.6C29.4 1.9 20.8 1 16.3.7 12.7.4 8.9 2.6 5.7 3.8 3.4 4.7 1.4 5.3.5 7.7c-.3.7.9 1.1 1.2.3 1.2-3.2 8.8-4.8 11.8-5.8 2.3-.7 5.5-.1 7.7.3 1.6.3 3.1.8 4.5 1.5 1.6.6 2.4 1.9 2.5 3.9-4.2 1.5-9.6.1-14-.1-4.2-.2-8.4.2-12.6-.3-.8-.1-.8 1.2 0 1.2z"/>
  <path d="M32.7 34.5h8.2c.8 0 .8-1.2 0-1.3-2.7-.1-5.5-.1-8.2 0-.9 0-.9 1.3 0 1.3zM9.1 19.9c-1.1 2.3-.4 5.1-.4 7.6.1 4-.2 8-.6 12-.1.8 1.2.8 1.3 0 .3-3 .5-6 .6-9 .1-2.9-1-7.2.2-9.9.3-.7-.7-1.4-1.1-.7zM15.3 19.5c-.1 7.4 0 14.7.3 22.1 0 .8 1.3.8 1.2 0-.4-7.4-.5-14.7-.3-22.1.1-.8-1.2-.8-1.2 0zM23 20.4v20.2c0 .8 1.3.8 1.3 0V20.4c0-.8-1.3-.8-1.3 0z"/>
</svg>
