<svg xmlns="http://www.w3.org/2000/svg" viewBox="0 0 100 94.2">
  <path d="M46.7 32.2c-5.1-7-13.5-8.6-21.6-6.7-9.6 2.3-14.6 10-15.3 19.4-.8 10.8 5.6 21.6 13.3 28.5 9.3 8.3 22.9 10 34.9 10.1V79h-1c-3 0-3 5 0 5h.8c3.2 0 3.2-5.2 0-5.2-9.5-.1-19-1.2-27.4-6-7.4-4.3-12.6-12.3-14.9-20.3-2.2-8-.3-16.7 7.2-20.8 6.1-3.3 15.3-2.9 19.6 3.1 1.9 2.6 6.2.1 4.4-2.6z"/>
  <path d="M48.2 33c.1-5.1 11.5-9.3 15.5-9.7 8.5-1 12.6 8.6 14.1 15.4 1.7 8.1-.9 16.7-5 23.6-3.5 6-10.1 13.6-16.3 16.8-2.9 1.5-.3 5.8 2.5 4.3 4.5-2.3 7.9-6.2 11.3-9.9 3.9-4.3 7.2-8.6 9.6-14 4.3-9.6 4.4-20.3.2-29.9-3.8-8.7-11.6-12.9-20.8-10.5-5.9 1.5-15.9 7-16 13.9-.1 3.2 4.9 3.2 4.9 0z"/>
  <path d="M66.6 51.7C63.4 56.8 60.2 62 55 65.3c-.9.6-1.5 1.8-1.1 2.8 0 .1.1.1.1.2.6 1.6 2.1 2.2 3.7 1.5h.1c3.1-.8 1.8-5.7-1.3-4.8-.4.1-.8.3-1.3.5 1.2.5 2.4 1 3.7 1.5 0-.1-.1-.1-.1-.2-.4.9-.8 1.9-1.1 2.8 6-3.8 9.7-9.5 13.4-15.4 1.5-2.7-2.8-5.2-4.5-2.5z"/>
</svg>
