<svg xmlns="http://www.w3.org/2000/svg" viewBox="0 0 76 75">
  <path d="M37.6 54.2c0 1.7-1.4 3.1-3.1 3.1-1.7 0-3.1-1.4-3.1-3.1s1.4-3.1 3.1-3.1c1.8-.1 3.1 1.3 3.1 3.1zM28.6 31.5c1.4-5.6 14.1-3.9 13 2.8-.4 2.5-4.9 2.3-6.7 3.2-2.9 1.4-3.6 4.3-2.7 7.3 1 3.5 6.4 2 5.4-1.5-.4-1.4 1.4-1.2 2.8-1.5 1.9-.4 3.5-1.2 4.9-2.6 3.6-3.7 1.9-9.4-.9-13-5-6.3-19.1-4.5-21.1 3.7-.9 3.7 4.5 5.2 5.3 1.6z"/>
  <path d="M64.1 24.6C57.5 6.3 36 5.9 20.2 9.7c-3.5.8-2.1 6.1 1.4 5.5C9.8 22.5 1.9 35.9 8.3 50.1c7.5 16.6 30.2 23.3 44.9 12.3 11.1-8.3 15.7-24.7 10.9-37.8zM53.9 53.9c-8.3 10.5-22 10-32.5 3.4-10.3-6.4-11.4-18.7-6-28.7 5.4-9.8 16.4-14.2 27-13.4 1 .1 1.7-.3 2.2-.9 5.5 1.4 10.4 4.6 13.5 10.4 4.9 9.2 1.9 21.5-4.2 29.2z"/>
</svg>
