<svg xmlns="http://www.w3.org/2000/svg" viewBox="0 0 90 19.3">
  <path d="M8.5 2c.5 0 1 .3 1.3.7 1.1 1.7 2 3.5 2.8 5.3 4.4.2 8.8.4 13.1.7 8.9.5 28.7 4.1 62.6-.6.8-.1 1.6.5 1.7 1.3.1.8-.5 1.6-1.3 1.7-20.5 2.8-42.2 1.6-63.1.5-3.9-.2-7.9-.4-11.9-.6.4 1.5.8 3.1.9 4.7.1.8-.5 1.6-1.3 1.7-.3 0-.5 0-.8-.1-4.2-1.9-8.1-4.3-11.8-7l-.1-.1-.3-.2c-.2-.3-.4-.7-.3-1.1 0-.3.1-.5.3-.7L.4 8c2.2-2.3 4.7-4.2 7.4-5.9.2-.1.5-.1.7-.1zm.7 5.8c-.3-.7-.7-1.5-1.2-2.3-1 .7-1.9 1.4-2.8 2.2l4 .1zm1.2 3.1l-3.8-.1c1.5.9 3 1.8 4.5 2.5-.2-.8-.4-1.6-.7-2.4z"/>
</svg>
