<svg version="1.1" id="Calque_1" xmlns="http://www.w3.org/2000/svg" x="0" y="0" viewBox="0 0 218.6 348.4" xml:space="preserve">
  <style>
    .st0{fill-rule:evenodd;clip-rule:evenodd}
  </style>
  <path class="st0" d="M48.4 267.7c-.1-3.5.5-4.9 2-6.9 11 3.7 17 5.3 29.7 5.8 11.4.4 22.5.3 33.8 1.3 7.4.7 38.4-.5 48.2-1.6 4-.5 10.6-3.2 13.4-3.6.4 6.1-3 9.2-8.9 9.6-3.1.2-5.5.9-7.9 1l-43.5 2.4c-12.2.5-24.5-1-36.6-1.4-11.6-.5-23.6 1.3-30.2-6.6zm7.7-12.1c-.1 1.3-.1.6-.5 1.2-.7-.4-1.4.5-1-1.7.3-1.7.4-.7 1.1-1 .2.3.5.2.4 1.5zm-3.4-52.9c1.2 2 .9 6.1.8 9-.3-.5-.3-.3-.5-1.3l-.5-3.4c-.2-1.5-.4-3.1.2-4.3zm.1-7.2c.4 2.4-.2 1-.4 1.4-.9-1.4-.6-.9-.5-3 .6.8.4-.9.9 1.6zm-2-27.9c.6 1.5 1 17.1.9 19.7-.3-.5-.3-.3-.5-1.2l-1.1-14.7c-.3-3-1.2-2.8.7-3.8zm118.2.4c-.9-.9-1.9-1.6.4-2.4l-.4 2.4zM49.6 152.9c2.3-1.2 4.1-3.2 4.2 1.3.1 3.2-2 7.7-4.8 8.8l.6-10.1zm116.7 8.5c-.6-3.1-.6-12 1.8-14.6 1.7 1 .7.8 2.6 2.4.1 3.8.8 12-4.4 12.2zm-56.2-8.5c.7 2.4.2 1 2 1.1-.5-4.4-1.6-4.5 3.6-5.1 4.6 2.9 8.4 4.9 10.6 8.3 1.9 2.8 2.1 2.2 4.4 4.6 1.6 1.7 2.7 3.7 4 5 4.5 4.4 13 21.3 16.2 28.4 2.5 5.7 10.3 26 11.2 33 .7 5.3 1.6 9.9 2.3 15.3-2 .1-3.1-.4-4.4.2 1.3 2.5-.5-1 2.5 2.4 1.4 1.6.8 1.4 3.2 1.2.6 7.2 2 6.9 2.6 9.6-7.2 4.2-35.4 4.6-45.8 4.2l-47.2-1.6c-2.6-.3-5.3-.4-7.9-.6-2.8-.2-4.1-.8-6.8-1 .7-2.6 1-1.4 1.2-2.9.1-.6-.5-7.8.5-10.9 4.5-1.4 4.8.4 7.6-1.3-.5-.4-.1-.4-1-.8-1.3-.6-2.2 0-3.5-1.1 2-1 6.7-2 9.6-1.9-.1.1-.3.2-.4.3-.1.1-.3.2-.3.3l-.7 1.6c9.2-1.7 9.6.5 13.7 3.8 6 4.8 18.8 8.6 21.8 4.8-1.1-.3-4.1.1-6.3-.3-15.6-2.6-14.5-9.6-21.7-10.4-7.7-.9-3.6-4.1-18.8 1.3.4-11-.9-22 2.6-32 1.5-4.3 2.5-9.5 4-13.8 3.1-8.9 9.1-16.8 15.9-23.3.6-.6 1.2-1.3 1.9-2.1l13.2-12.1c5-6.1 3.6-2.2 8.4-6.7.9-.9-.4-.2 1.1-.6 1.5 2 .3 1.9.7 3.1zm18.4-9.1c1.7-1.6 1.7-1.5 3.6-2.5l15.4-15c4.2-4.3 4.3-5.9 7.9-10.8 5-6.6 2-3.3 4.5-7.4 5.4-8.6 2.2-4.1 5.8-12.6 1.5 4.3-2.2 42.9-.2 48.9-3 5.7-1.8 4-2 10.6-.1 4.9-.6 6.5 2 9.6-2 4.2-.1-.3-.3 4.2-.1 2-.2 4.3-.3 6.5-.4 14.5.8 25.2-.1 39-.7-.6-.7.1-1.7-2.6l-2.4-7.5c-1.1-3.2-2.3-6.7-3.8-10-1.9-3.9-11.8-24.9-14.3-27.4-1.1-1.1-2.6-2.6-3.6-3.7-5.3-5.8-5.6-5.1-7.3-6.8-7.2-7.9-10-6.7-11.8-8.8l8.6-3.7zm40.9.8c.1-1.6.6-.7.8 0 .1.8-.9.8-.8 0zm-99.5-33.2c3.5-2.4 2.8-.8 4.7 0l16.2 2.9c3.5.7 7.6 1.6 11.1 1.8 5 .3 6.3 1.5 10.6 2.1 5 .7 6.8.2 11.1-1 7.1-2.1 12.3.6 20.4-3.7 4.2-2.2 2.7-4.1 8.5-4.1-1 2.6-2.3 3.4-4 6-7.5 11.8-4.7 7.2-13.1 15.8-1.7 1.8-3.1 2.7-4.9 4.6-3.2 3.3-2.6 2.1-5.2 4.4-1.4 1.2-1.4 1.1-3.1 1.9-2.9 1.4-4 3.7-10.1 3.7-11.5.1-24.2-15.9-28.6-19.7l-4.9-4.7c-1.7-1.8-2.5-3.4-4.3-5.3-1.8-1.7-3.6-2.8-4.4-4.7zm4.7-1.5c3.7-2.4 27.5-5.1 33.8-5.4 7.5-.3 22.6 2.6 29.4 1.2 3.4-.7 6 .5 8.9 1.3-2.1 4-10 6.8-15 7-6.6.2-11.1 2.6-19.3 2-3.1-.2-7.5-1.8-10-1.6-3.4.2-4.6-.2-8.8-1.1l-19-3.4zM56.7 187c-.1-8.4 1.5-13-2.3-20.4 1.5-2.3 2.9-4.3 3.9-7.2.7-2.1.2-6.6-.2-8-.4-1.3-1.2-1.9-1.2-4.3 0-1.6.4-3.3.4-5.1 0-3.1-.4-5.9-.8-9l-2.3-36.4c0-2.6 0-.7.5-1.5l9.6 16.1c10.3 14.5 6.1 9.2 17.5 20.6 5.6 5.6 10.3 10.1 16.9 14.7 1.7 1.1 2.6 1.1 4 2.3-1.7 1.5-1.8.7-4 2.7l-9.7 9.4c-5.7 4.6-11.1 10.5-15.9 16.2-1.2 1.4-1.7 2-2.8 3.5-2.8 3.9-2.6 3.2-4.8 8.3-3.8 8.9-5 16.5-5.4 17.7-.9 2.5-.7 1-1.5 1.6 0-2.9-.4-3.3-.6-5.4-.2-1.6.1-3.8 0-5.6-.2-3.6-1.3-6.2-1.3-10.2zM52.8 69.1c5.8 0 8.2-1.1 14.8-.5l13.8.1c4.2-.2 10-.4 14.2 0l43.3-.1c9.4-.6 18.3-1.3 28-1.3-.5 1.7-1.3 2.9-1.9 4.9-1.1 3.6-2 14.7-3.3 17.5-1.4 3.1-5.1 15-8.8 18.7-.8-.4-1.5-.6-2.3-1.1-6.1-3.8-12.5-5.9-20.2-5.1-2.4.3-1.5.4-2.6.8-3.8 1.3-12.9-1.5-17.4-.7-12.5 2.2-16.6.6-32.1 4.5-3.5.9-6.1 2.3-9.4 2.9l-6-8.7c-6.7-12.1-10.1-14.5-10.1-31.9zm-9.1-9.2c0-2.4.8-6.9 2.2-7.9 4.2-3.1 17.7-.9 20.5-1.2 1.5-.2 2.1-.6 3.7-.7 6-.6 12.1.3 18 0 16.3-.7 79.3-.3 87 4.2-.5 2.4-2.4 3.8-4.4 4.9-3.4 1.9-3.3 1.6-7.5 1.4-5.4-.2-11.6.4-16.9.9-11.2 1-23.4.8-34.9 1-5.5.1-12.5.1-18-.1-9.7-.5-11.2.2-17.4.1l-18 .4c-4.1.7-4.4.9-8.8.4-3.8-.4-3.3-1.2-5.5-3.4zm6.9-16.2c2.5-3 4.8-2.6 9.7-2.5-.6 2.8-2.9 4.5-5.4 4.9-2.1-1.6-.1-.9-3.2-1.9l-1.1-.5zm114.7-1.8c4-.2 7.3-1.4 10.5.6-.7 1.8-.1 1-2.2 1.9-.9.4-2 .9-2.7 1.2-2.3.8-3.8.6-6-.2l.4-3.5zm8.8 95.6c-1.1-17.2 2.8-47.1-.1-61.6-.6-3.3-.3-6.5-.7-9.9.1-.1.3-.2.4-.3l2.3-1.3c2.8-1.5 3-3.3 4.1-6.6 2.6-7.2-1-6.5-3.4-9.3l3.2-1c1.7-5.4 0-9.4-5.3-10.5-5.2-1.1-11-.2-14.5 2.3l.9 6c-14.3-2.2-55.9-2-72.6-1.1-9.7.5-10.1-.7-23.1 1 0-3.3.3-5.1-1.8-7-4.4-4-13.3-1.8-18.7 1.9-.2 2.3.1 3.9.7 5.6-1.4.9-2.3 1.4-3.8 2.4-.7 4-2.5 5.3-1.7 10.3.4 2.6 2.6 6.2 4.6 7.1-.5 2.8-.3 9.1-.1 13.2.2 4.3-.4 9.1.1 13.5.5 3.9.9 8.7 1 12.7.1 4-.2 9.4.3 13.2.6 4.6.6 8.8.7 13.3.3 9.5 2.2 12.2-.5 19.4-.4 1.1-1.1 4.3-1.2 5.5-.9 7.2 0 8.3 2.7 10.7-1.6 15.3 1.8 29.2 1.3 44-.2 6.7.6 14.6.9 21.8.2 3.4.8 6.7.8 10.3 0 2.5-.5 9.2-.4 10.1l-1.8 1c-3.2 2.9-5.5 6.6-4.7 11.6 3 18.3 30.9 14 41.9 15.5 14.9 2 23.8.4 36.7.8 8 .2 10.4.3 17.6-.9 4.3-.7 12.8-.9 17.3-1.1 4.3-.1 13.8-.6 16.8-2 2.3-1.1 3-2.1 4.4-5.1 1.3-2.6 1.6-4.7 1.9-7.9.7-9.6-6-6.5-5.6-13.2.6-8.8-1.9-47.4-.9-52.5 1.1-5.4.2-30.1-1.9-34.9 2.5-4 2.5-4.4 3.3-10.6.4-3.3 1.3-2-.1-5.4-1.4-3.3-2.5-2.2-2.7-2.9 0-.2-.2-.2-.3-.3 2.2-4.4 2.4-1.1 2-7.8z"/>
  <path class="st0" d="M115.5 222.9s.6-.8.7-1c-1-.8-1.2-1-2.5-1.4-7.6-2.3.3-4.2-1.5-10.7-2.5-9.5-.1-5.4-.4-10.6l1.7-1.1-2.5-17.4c-2 2-.9 1.4-2 4.1-1.1 2.9-1.2.9-.3 4.5.7 3 1.5 7 2.5 9.9-4.1 3.3-1.1 9.3-1 10.1.7 5-3 2.2-1.9 10.6-1.1 1-1.6.7-2.2 2.1-1.2 2.4 1-.2-.4 2.6-.3.7-3.6 3.1-4.6 3.9l-5.2 3.2c-2 .8-3.9 1.5-5 3.5-2.7-.2-5.3.3-8.1.6-3.1.4-5.3-.1-5.8 2.3 2.3-.4 3.7.1 5.8-.1 3.7-.4 17-5.9 20.2-8.6 6.6-5.4 3.6-4.8 3.4-6.5l3.4 1.4 1.8-1.3c1.6 2.6 4.8 4.2 7.6 6.3 7.1 5.3 11.3 6.9 12.9 8.1 2.4 1.8 11.4 7.6 13.7 4.7-2.3-1.2-6.8-2.2-9.2-3.5-2.8-1.4-4.9-3.7-7.1-4.7-2.3-1.1-2.2-.3-3.9-2.4-1.4-1.7-8.7-7-10.5-7.7.2-.8.1-.4.4-.9z"/>
  <path class="st0" d="M116 241.1c2.6 1 3.4.3 6 2 1.9 1.2.3.6 2.2 1.8 2.8 1.7 10.2 5.4 13.8 5.7l.1 3.8 2.3 1.5c.4-.7.8-1.7 1-2.9.4-2.1.3.1-.6-2.4 2.5.1 1.1.2 3.4.7 4.5-3.2 4.3-1.4 7-4.4-3.3.9-5.7 2-9.6 2.2-9.3.5-14.4-5.8-23.8-8.1h-1.6c.1-.2-.1 0-.2.1zM112.9 162.1c-.9-1.1-1.6-1.2-1.8-3.1-.3-2.2.1.9.2-2.1.1-1.5-.1-1.2-.4-1.9-1.8 1.2-.5-.7-1.4 1.6-1.1 2.8.3 5 .6 5.8 1.4 3.1-1.9 7.1-.4 9.6l.7 1.1c-.7 1.9-2 4.1-1.8 6 2.6.5 3-.2 3.2-2.6.1-1 .3-4.3.2-4.7-.4-1.6-.9 0-.6-2.6.1-1.5.3-.9.8-2.2.9-1.9.8-2.6.7-4.9zM94.6 111.3c1.2.8-.8-.2 1 .7 2.2 1.1 14.1 1.9 15.3 1.9 6.6 0 10.5-2 16.1-2.3-.1-1.4-.4-2-.8-2.8-1.9 2.2.7 1.2-6.6 2.5-6.4 1.2-19.5 1.9-25 0zM95.4 244.4c3.3-.9 6-2.7 9.3-3.8 5.5-1.8 7.5.7 9.8-.1-3-4.6-11.4-1.1-15.3.6-4.7 2.1-3.3 1.7-3.8 3.3zM159.9 247.5c.4 3.1.5 1.7.9 3 .3.8 0 1.9.3 3.2 1.4.7 1.9 1.5 4.2.9l-.8-3.6c-1-2.5-2-3.7-4.6-3.5zM119.4 233c-2.7-.3-3.4.8-5.5.8-2 0-3.4-1.5-3.8.8 1.4 1.4.8.8 2.6 1.5l.9-1c.6-.4 1-.6 1.5-.9 1 1.1 1.1 1.4 3.2 1.6l1.1-2.8zM77.4 253.1c-1.4-.4-3.5-1-4.1 1-.7 2.7.3 3.3 2.7 3.3l1.4-4.3zM155.2 252c1.5 1.1 1.6 1.5 3.1 1 .1-.1 2.8-4.1-2.8-4.7l-.3 3.7zM95.7 240.2c.7-1.4.3-1.6.1-3.1l-3.9-.2.3 3c1.9 1 1.9 1.1 3.5.3zM152.7 254.4c.9-1.7.6-1.3.5-3.6l-3.1-1-.3 3.4c1.4 1.2 1.1 1.8 2.9 1.2zM84.1 252.2c3 5.3 4.7 1.6 4.7 1.4-.7-2.5-.3-1.5-2.6-2.8l-2.1 1.4zM77.4 249.2c.6-2.2.9-1.5-.4-2.9-.9-1-1.3-1.3-2.7-1.5-.6 3.1.1 4.3 3.1 4.4zM122.7 247.8c-.8 3.2-.3 3.5 2.6 3.9-.1-2.9.6-3.8-2.6-3.9zM93 109.5c2.9-.1 7.3-.6 9.6-2.4-3.3-.1-7.7.8-9.6 2.4zM102.6 238.5c3.9-.6 1.8-3.9-1.3-3.4-.1 2.1-.4 2.2 1.3 3.4zM149.3 242.4c1.9 1.1 3 1.7 4.5 2.7 1.4.9 3.1 1 4.1.4 0 .1-7.5-3.7-8.6-3.1zM92.3 256.3c-.1-.2-.8-2.1-1.1-2.7l-2.4 1.1c.5.7.2 1.5 1.4 2.1 2.8 1.1 2.1-.5 2.1-.5zM94.5 121.6c.9.5 1.5.8 3.1.6l1.6-.6c-1-1.7.4-1.1-2.1-1.2-1.7-.1-1.9.3-2.6 1.2zM112.8 125.1c.6-2.4 1.2-2.6-1.2-3.3-1.9 2-1.4 2.8 1.2 3.3zM125.9 125.2l.4-2-3.3-.9c.3 2.2.8 2.8 2.9 2.9zM115.9 107.5l-6.7-.6c1.1 1 3.4 1.7 4.7 1.6 2.1-.1 1.5-.6 2-1zM118.1 131c1-2 .6-3.2-1.9-2.8-.3 2.4-.1 2.3 1.9 2.8zM107.4 137.4c1 2.3-.9 1.6 1.9 1.9l.4-2.9c-1.5-.2-1.7 0-2.3 1zM80.5 118.3c-.5-1.5.2-.8-.9-1.7-.1-.1-1.6-.7-1.9-.8-.1 2.7.5 2.9 2.8 2.5zM97.7 254.8c-.4-2.3-4.1-3.2-2.1.7l2.1-.7zM112.5 246.7l2.9.2c.1-2.2.1-1.5-1.3-2.3-1.5.9-.8-.1-1.6 2.1zM129.6 239.9c-.5-1.3-.3-.8-1.5-1.5-1.2 1.1-.9.6-.5 2.5 1.8-.3.9.3 2-1zM82.8 118.7c.4.2-.4 1.7 2.5.1-2.7-2.8-2.3-.2-2.5-.1zM108.1 132.7c.2.1-.2 1.3 2.2.1-.3-.7.8-1.2-1.2-1.2-1.8 0-.6.5-1 1.1zM101.5 133.2h1.9c-.1-.4 1.3-1.5-1-1.5-.9-.1-1 .5-.9 1.5zM116.5 250.8c-1.9.5-.4.1-.8 1 2.1 1.3 1.4 1 1.9-.5-.3-.4 1.6-1.3-1.1-.5zM97.5 130.9h2c-.5-1.8.1-.6-.6-1.7-1.2.2-1.3 0-1.4 1.7zM116.8 248.4c-1.6-.6-.7-.6-2.1.5.9.6-.3.7 1.3.6 1.9-.2.4.2.8-1.1zM135.4 109c.6-1.6.5-1.1-2-1.6.5.6 1 1.8 2 1.6zM86.1 126.7c.6-.4 1.3-.2.6-1.9-1.3.6-1.6.1-.6 1.9zM124.4 257.2c-1-1.1-.1-.6-2-1l.8 1.9 1.2-.9zM127.4 254.9c-.1 2.1-.8-.8.5.7.7-1.4.8-.2-.1-1.6-.8.9-.3-.5-.4.9z"/>
</svg>
