<svg xmlns="http://www.w3.org/2000/svg" viewBox="0 0 100 102.2">
  <path d="M52.7 8.2s.1 0 .2.1c.9.3 1.4 1.2 1 2-.3.7-1.2 1.1-2.1.9-.2-.1-.3-.1-.5-.2-.1 0-.1 0 0 0h.3c.2 0 .2 0 .8-.1.5-.2.5-.2 1-.9.1-.7.1-.7-.1-1.1-.5-.6-.6-.7-.6-.7zm-1.1 2.9c-.3-.1-.5-.1-.6-.2-.1 0-.1 0-.8-.7-.2-.4-.2-.4-.1-1.1.4-.7.4-.7 1-.9.6-.2.6-.2.8-.2h.3c.2 0 .2 0 .3.1.4.1.7.2 1.1.4.4.2.7.4 1 .6.3.2.6.4.9.7.3.2.5.5.8.7l.8.8c.3.3.6.6.9 1 .3.3.5.6.8 1 .3.3.5.6.6.7.1.2.3.3.4.5.2.2.4.5.7.8.3.4.5.7.6.9.2.2.3.4.4.7.1.2.3.4.4.7.1.2.3.4.4.6.1.2.3.4.4.7l.3.6c.1.2.3.5.4.7l.3.6.3.6c.1.2.3.5.4.7l.3.6c.1.2.2.4.3.7.1.2.2.5.3.7.1.2.2.4.2.7.1.2.2.5.2.7.1.2.1.4.2.6.1.2.1.4.2.7.1.2.1.4.2.6.1.2.2.5.3.9.1.3.2.7.3 1 .1.4.2.7.2 1.1.1.3.1.7.2 1 .1.3.1.7.2 1l.2 1c.1.3.1.7.2 1 .1.3.1.7.2 1 .1.3.1.7.2 1 .1.3.1.6.2.9.1.3.1.6.2.8.1.3.1.5.2.8.1.3.1.5.2.7.1.2.1.4.2.7.1.2.1.4.2.6.1.2.1.5.2.7.1.2.1.4.2.6.1.2.1.4.2.7.1.2.1.4.2.7.1.3.1.5.2.7.1.2.2.4.2.6l.3.6.3.6c.1.2.3.4.4.7.2.3.2.3.4.7.1.2.2.4.4.6.1.2.3.4.4.5l.4.6c.1.2.3.3.4.5.1.2.3.3.4.5.2.2.4.4.6.7.2.3.4.5.5.8.1.2.3.5.4.8.1.2.2.3.3.5.6.9.3 1.9-.8 2.5-.5.3-1.1.4-1.7.4H67.3V59.8c.7.1 1.2.5 1.5 1 .1.1.1.3.1.4h.1c.7.2 1.3.6 1.7 1.1.2.3.4.6.5.9.1.3.2.6.3.8.1.3.1.6.1.9 0 .4 0 .8-.1 1.1-.2.6-.6 1-1.1 1.3-.4.2-.8.4-1.2.5-.3.1-.7.2-1 .2-.3 0-.5.1-.8.1-.3 0-.6.1-1 .2-.3.1-.6.1-.9.1-.3 0-.5.1-.8.1-.3 0-.5.1-.8.1-.3 0-.5.1-.8.1-.3 0-.5.1-.8.1-.3 0-.6.1-1 .1h-3.7c-.5 0-.9-.1-1.4-.3-1.1-.4-1.6-1.4-1.2-2.3.2-.5.6-1 1.1-1.3.3-.2.6-.4.9-.5l.6-.3c.2-.1.5-.2.7-.4l.6-.3c.2-.1.4-.2.6-.4.2-.1.4-.3.6-.4.3-.2.5-.3.8-.5.2-.2.5-.3.8-.5.3-.2.6-.3.9-.5.3-.2.6-.3 1-.5.1-.1.2-.1.4-.2v-.7c0-.3 0-.6-.1-.9V55c0-.4.1-.8.3-1.2.4-.8 1.2-1.2 2.2-1.2H69.7c.3 0 .6 0 1 .1h1.5c-.1-.1-.1-.2-.2-.2-.1-.2-.3-.3-.4-.5-.2-.2-.4-.4-.5-.6-.2-.2-.3-.4-.5-.6l-.4-.6c-.2-.2-.3-.4-.5-.7-.2-.2-.3-.5-.5-.7-.2-.3-.2-.3-.4-.7-.1-.2-.3-.5-.4-.7-.1-.2-.3-.5-.4-.7-.1-.3-.3-.5-.4-.8-.1-.3-.2-.5-.3-.8l-.3-.9c-.1-.3-.1-.5-.2-.7-.1-.2-.1-.4-.2-.6-.1-.2-.1-.4-.2-.7-.1-.2-.1-.4-.2-.6-.1-.2-.1-.5-.2-.7-.1-.2-.1-.5-.2-.7-.1-.2-.1-.5-.2-.8-.1-.3-.1-.5-.2-.8-.1-.3-.1-.6-.2-.9-.1-.3-.1-.6-.2-.9-.1-.3-.1-.6-.2-1-.1-.3-.1-.7-.2-1-.1-.3-.1-.7-.2-1l-.2-1c-.1-.3-.1-.7-.2-1-.1-.3-.1-.7-.2-1-.1-.3-.1-.6-.2-.9-.1-.3-.2-.7-.2-1-.1-.3-.1-.5-.2-.7-.1-.2-.1-.4-.2-.7-.1-.2-.1-.4-.2-.6-.1-.2-.1-.4-.2-.6-.1-.2-.1-.4-.2-.6-.1-.2-.2-.5-.3-.7-.1-.2-.2-.4-.2-.6l-.3-.6-.3-.6c-.1-.2-.2-.4-.3-.5-.1-.2-.2-.5-.4-.7l-.3-.6c-.1-.2-.2-.3-.3-.5-.1-.2-.3-.4-.4-.7l-.3-.6c-.1-.2-.2-.4-.4-.6-.1-.2-.3-.4-.4-.6-.1-.2-.2-.4-.4-.5-.1-.2-.3-.4-.6-.8-.3-.3-.5-.6-.6-.8-.1-.2-.3-.4-.4-.5-.1-.2-.3-.4-.6-.7-.3-.3-.5-.6-.8-.9-.3-.3-.5-.6-.8-.9-.2-.3-.5-.5-.7-.7L53 12c-.2-.1-.3-.3-.5-.4-.1-.1-.3-.2-.5-.3h-.1c-.2-.1-.3-.2-.3-.2zm12.8 52.7c-.3.1-.5.3-.7.4-.3.2-.5.3-.7.5-.2.1-.4.3-.6.4-.2.2-.5.3-.7.5-.1.1-.2.2-.3.2h.4c.2 0 .5 0 .7-.1.2 0 .5-.1.7-.1.3 0 .5-.1.8-.1.2 0 .5-.1.7-.1.3 0 .6-.1.9-.1.3-.1.7-.1 1-.2.3 0 .6-.1.9-.1.2 0 .3-.1.5-.1 0-.1 0-.2-.1-.3 0-.1-.1-.3-.2-.5 0-.1 0-.1-.1-.2-.1 0-.2 0-.3.1-.6.1-1.2.1-1.8 0-.3-.1-.5-.2-.7-.3-.2 0-.3 0-.4.1zm3.8 1c0-.1 0-.1 0 0 0-.1 0-.1 0 0zM66.4 61zm.8-6c-.2.4-.7.6-1.1.6h1.1V55z"/>
  <path d="M68.5 68.9c-.2-.1-.5-.2-.7-.2l-.9-.3c-.3-.1-.6-.1-.8-.2-.3-.1-.5-.1-.7-.1h-1.1c-1 0-1.8-.7-1.8-1.6 0-.8.9-1.5 1.9-1.5h1.4c.4 0 .8.1 1.2.2l1.2.3c.3.1.7.2 1 .3l.9.3c.4.1.8.3 1.1.6.5.3.9.8 1.2 1.3.2.4.3.9.2 1.3 0 .4-.1.7-.2 1.1-.1.3-.3.6-.4 1l-.6.9c-.3.3-.5.6-.9.9-.3.2-.6.5-1 .7-.3.2-.7.3-1 .5-.4.1-.7.3-1 .4-.3.1-.6.2-.8.2-.3.1-.6.1-.9.2-.3.1-.6.1-1 .1h-1c-.4 0-.8 0-1.2-.1-.5-.1-.9-.2-1.4-.3-.4-.2-.8-.3-1.1-.5-.3-.2-.5-.3-.8-.6-.2-.2-.5-.4-.7-.6-.2-.2-.4-.4-.7-.6-.2-.2-.4-.4-.6-.7-.2-.2-.3-.4-.5-.6-.2-.2-.3-.5-.5-.8-.2-.3-.3-.5-.5-.8-.2-.4-.4-.9-.5-1.5-.1-.8.5-1.6 1.5-1.7 1-.1 1.9.4 2.1 1.3.1.3.1.5.2.6.1.2.3.4.4.7.2.2.3.4.4.6.1.2.3.3.4.5.1.2.3.3.5.5l.5.5c.2.2.3.3.5.4.2.1.3.2.4.3.1.1.3.1.5.2s.3.1.5.1h1.5c.2 0 .3 0 .5-.1.2 0 .4-.1.6-.1.2 0 .4-.1.6-.2.2-.1.4-.1.6-.2l.6-.3c.2-.1.3-.2.5-.3.1-.1.3-.2.4-.4.1-.2.3-.3.4-.5l.3-.6c0-.1.1-.2.1-.3v-.1c-.6-.1-.7-.2-.8-.2zM42.8 36.6c-.5.5-1.3.8-2 .8-.9 0-1.6-.4-2.1-1-.3-.4-.5-.8-.6-1.2-.1-.3-.1-.6-.1-.9v-.7c0-.5.2-.9.5-1.4.4-.5.9-.8 1.5-1 .8-.2 1.6-.1 2.3.2.6.3 1 .9 1.2 1.5.1.4.2.7.2 1v.7c0 .4-.1.8-.3 1.2 0 0 0 .1-.1.1-.1.2-.3.5-.5.7z"/>
  <path d="M31.5 30.9c.1-.1.1-.3.1-.4-.1-.4-.4-.7-.8-.8l-.2-.1c.6-.1 1.1.1 1.5.5l-.2.2c-.1.3-.2.5-.4.6zm1.1.2c.1.8-.6 1.6-1.6 1.7-1.3.1-2.5-.3-2.9-1.5-.2-.6-.1-1.2.3-1.8.2-.3.3-.5.6-.8.2-.3.4-.5.7-.8.2-.3.5-.5.8-.8.3-.3.7-.5 1-.8.3-.2.7-.4 1.1-.6.4-.2.8-.4 1.3-.6.5-.2 1-.4 1.5-.5.5-.2.9-.3 1.3-.3.3-.1.6-.1.9-.2.3-.1.7-.1 1-.1.3 0 .7-.1 1-.1h3.6c.4 0 .7.1 1.1.1.3.1.6.1.9.2.3.1.6.1.9.2.2.1.5.1.8.2.3.1.7.2 1.1.3.5.1.9.3 1.3.4.4.2.8.3 1.2.5.4.2.7.4 1 .6.3.2.6.4.8.6.3.2.5.4.7.7l.2.3c.6.7.5 1.6-.3 2.1s-1.9.4-2.5-.3l-.2-.3-.4-.4c-.2-.1-.3-.2-.5-.4l-.6-.3c-.2-.1-.5-.2-.8-.3-.3-.1-.7-.2-1.1-.4-.4-.1-.7-.2-.9-.3-.3-.1-.5-.1-.8-.2-.2-.1-.5-.1-.7-.2-.3-.1-.5-.1-.8-.1-.2 0-.4-.1-.6-.1H39.9c-.2 0-.5 0-.8.1-.3 0-.5.1-.8.1-.3 0-.5.1-.7.1-.2 0-.5.1-.9.2s-.8.3-1.1.4c-.4.2-.7.3-1 .4-.3.1-.5.3-.8.4-.2.1-.4.3-.6.4-.2.2-.4.4-.6.5l-.3.3c.1.7.2 1 .3 1.4zM62.7 86.4v-.5c0-.2-.1-.3-.1-.5 0-.1-.1-.3-.2-.5l-.3-.6c-.2-.3-.2-.3-.3-.6l-.3-.6c-.1-.2-.2-.4-.3-.7-.1-.2-.2-.5-.3-.8-.1-.4-.2-.8-.2-1.1v-.7-.7c0-.3 0-.5.1-.7 0-.3 0-.3.1-.7 0-.3.1-.5.1-.8 0-.2.1-.4.1-.6.1-.5.3-.9.6-1.3.7-.8 1.7-1 2.9-.8 1 .2 1.6 1 1.3 1.8-.2.6-.7 1-1.3 1.1v.2c0 .2-.1.4-.1.6 0 .4 0 .4-.1.7 0 .2 0 .4-.1.6v1.2c0 .1 0 .2.1.3.1.2.2.5.3.6l.3.6.3.6c.2.3.2.3.3.6.1.2.2.4.3.7l.3.9c.1.2.1.5.2.7 0 .3.1.6.1.9 0 .3 0 .7-.1 1-.1.5-.3.9-.7 1.3-.3.3-.7.6-1.1.8-.3.1-.6.3-1 .4l-.9.3c-.2.1-.5.1-.8.2-.2.1-.5.1-.7.2-.3.1-.5.2-.8.2-.3.1-.7.2-1.1.3-.4.1-.8.1-1.2.2-.4.1-.8.1-1.1.1-.3 0-.7.1-1 .1-.3 0-.6 0-.9.1H53.4c-.5 0-.9-.1-1.4-.2-.2 0-.4-.1-.6-.1h-1.9c-.3 0-.6.1-.8.1-.4.1-.7.1-1.1.1h-1c-.4 0-.8 0-1.1-.1-.2 0-.5-.1-.7-.1-.3 0-.5-.1-.8-.1-.3 0-.6 0-.8-.1h-1.6c-.2 0-.4 0-.6.1-.3.1-.6.1-.9.2-.3.1-.6.1-.9.2-.3 0-.6.1-.8.1-.3 0-.6.1-.8.1-.2 0-.5 0-.7.1-.6.2-.9.2-1.2.2-.3 0-.6.1-.8.1-.2 0-.4.1-.6.2l-.9.3c-.4.1-.9.2-1.4.3h-1.8c-.4 0-.8 0-1.2-.1-.3 0-.6-.1-.9-.2-.3-.1-.6-.2-1-.3-.5-.2-.9-.4-1.3-.7-.4-.3-.7-.7-.9-1.2-.1-.3-.2-.6-.3-.8-.1-.3-.2-.6-.3-1l-.3-1.2c-.1-.5-.2-.8-.3-1.1l-.2-.8c-.1-.3-.1-.6-.2-.9-.1-.3-.1-.6-.1-.9 0-.3-.1-.6-.1-.9l-.1-.4c-.1-.8.6-1.6 1.6-1.7s1.9.5 2 1.3l.1.5c0 .3.1.6.1.9 0 .2.1.5.1.8.1.3.1.6.2.8.1.4.1.4.2.7 0 .2.1.5.2 1s.2.9.3 1.2l.3.9c.1.2.1.4.2.6.1.1.1.1.2.1.2.1.4.1.6.2.2 0 .4.1.6.1h2c.1 0 .3 0 .4-.1.3-.1.5-.2.8-.3.4-.1.7-.2 1.1-.3.3-.1.7-.1 1-.2.4 0 .7-.1.9-.1.3 0 .5-.1.8-.1.2 0 .5 0 .7-.1.2 0 .5-.1.7-.1.2 0 .5-.1.8-.1.3-.1.6-.1.9-.2.4-.1.9-.1 1.4-.1H43c.3 0 .6 0 .9.1.3 0 .7.1 1 .1.3 0 .6.1.9.1h1.3c.2 0 .4 0 .6-.1.3-.1.6-.1.9-.2.4-.1.8-.1 1.1-.1h.8c.4 0 .8 0 1.1.1.4 0 .7.1 1.1.2h1.9c.2 0 .5 0 .8-.1.3 0 .6 0 .9-.1.3 0 .6-.1.9-.1.3 0 .6-.1.9-.1.3-.1.5-.1.8-.2.3-.1.6-.2.8-.2.3-.1.5-.1.8-.2.2-.1.5-.1.7-.2.2-.1.5-.1.8-.2.2-.1.4-.1.5-.2.2 0 .2-.1.2-.3z"/>
</svg>
