<svg xmlns="http://www.w3.org/2000/svg" viewBox="0 0 90 19.3">
  <path d="M81.5 15.4c-.5 0-1-.3-1.2-.7-1.1-1.7-2-3.5-2.8-5.3-4.5-.2-8.9-.4-13.2-.7-20.8-1-42.3-2.2-62.6.6C.9 9.4.1 8.8 0 8s.5-1.6 1.3-1.7c20.5-2.8 42.2-1.6 63.2-.5 3.9.2 7.9.4 11.9.6-.4-1.5-.8-3.1-.9-4.7-.1-.8.5-1.6 1.3-1.7.3 0 .5 0 .8.1 4.2 1.9 8.1 4.3 11.8 7l.1.1.2.2c.3.3.4.7.3 1.2 0 .3-.1.5-.3.7l-.1.1c-2.2 2.3-4.7 4.2-7.4 5.8-.2.2-.5.2-.7.2zm-.7-5.8c.4.8.8 1.5 1.2 2.3 1-.7 1.9-1.4 2.8-2.2l-4-.1zm-1.2-3.1l3.8.2c-1.5-.9-3-1.8-4.5-2.5.2.7.4 1.5.7 2.3z"/>
</svg>
