<svg xmlns="http://www.w3.org/2000/svg" viewBox="0 0 48 48.4">
  <path d="M1.7 2.8C1.7 11.2.4 19.6.6 28c.1 4.4.3 8.7.7 13 .1.9-.2 4.1.9 4.8 2.1 1.2 6.5.3 8.8.4 4.6.1 9.3 0 13.9 0 6.5 0 15.9.9 21.9-2.2 1-.5.5-3.8.5-4.5 0-3.8-.4-7.5-.9-11.3-1-7.9.4-15.8-.8-23.7-.2-1.4-.2-2.3-1.5-2.7-3.4-.9-8.4-.1-12-.1-9.6.1-19.5.3-29.3.7-.8.1-.8 1.3 0 1.3 6.5-.3 13.1-.4 19.6-.5 3.2-.1 21.2-2 22.1 1.8 1.4 6.4.3 13.4.5 19.9.1 3.4 3.9 17.7-1.2 18.9C37 45.2 29.9 45 23 45h-9.9c-3.9 0-9.9 1.3-10.5-3.9-1.4-12.9.3-25.5.4-38.3 0-.8-1.3-.8-1.3 0z"/>
  <path d="M10.9 3.4c.2 3.8.3 7.7.3 11.5 0 .4.3.6.6.6 4.1.5 8.3.5 12.4.6 3.7.1 8.1.8 11.7.2.2 0 .4-.2.4-.4 1.2-3.7.2-9.1.2-12.9 0-.8-1.3-.8-1.3 0v10.4c0 3-9.4 1.6-11.1 1.5-3.6-.1-7.2-.1-10.7-.4-1.9-.1-1.3-9.7-1.4-11.1.1-.8-1.2-.8-1.1 0z"/>
  <path d="M29.5 5.9c-.3 1.2-.5 2.4-.6 3.7-.1.8 1.2.8 1.3 0 .1-1.1.3-2.2.6-3.3.1-.9-1.1-1.2-1.3-.4zM9.1 45.4c-.1-6.7-.1-13.5 0-20.2 0-3 1.9-2.8 4.4-2.8h16c.8 0 .8-1.2 0-1.3H15.3c-1.2 0-6.2-.8-7 .6-1.4 2.4-.6 6.3-.6 9-.1 4.9 0 9.8 0 14.8.1.8 1.4.8 1.4-.1zM38.4 25.9c-.2 6.4-.2 12.9 0 19.3 0 .8 1.3.8 1.3 0-.2-6.4-.2-12.9 0-19.3 0-.8-1.3-.8-1.3 0z"/>
  <path d="M43.9 22.8c-2.1-.1-4-.9-6.1-1-2-.1-3.9.5-5.7 1.3-3.6 1.5-5.9 5.2-6.9 8.8-.2.8 1 1.1 1.2.3.9-3.6 3-6.3 6.3-8.1 3.8-2.1 7.3-.4 11.1-.1 1 .1 1-1.2.1-1.2z"/>
  <path d="M23 25.9c-.1 1.4.1 2.7.6 4 .4 1.1.8 2.6 1.4 3.6.5.7 1.4.1 2-.1 1.5-.5 2.9-1.1 4.4-1.6.7-.3.4-1.5-.3-1.2-.9.3-1.8.7-2.7 1-.8.3-1.9.9-2.8 1 .2.1.4.2.5.3-.6-.9-1-2.3-1.3-3.3-.4-1.2-.6-2.4-.5-3.7 0-.8-1.2-.8-1.3 0z"/>
</svg>
