<svg version="1.1" id="Calque_1" xmlns="http://www.w3.org/2000/svg" x="0" y="0" viewBox="0 0 100 103.2" xml:space="preserve">
  <path d="M12.3 90c9.4-9 17.9-18.8 26.2-28.8.6-.7-.4-1.8-1.1-1.1C29.1 70.1 20.6 80 11.2 89c-.7.6.4 1.7 1.1 1z"/>
  <path d="M33.8 32.5c.5-7.8 7.8-14.3 13.9-18.3 7.5-4.9 17.7-2.8 25.3 1 6.3 3.2 10.7 9 13 15.5 2.8 7.8 1.7 15.1-2.5 22.1-4.4 7.3-9.8 11.7-18.1 13.9-7.1 1.9-14 1-20.5-2.2C32.8 58.4 29.6 44.3 33.3 32c.3-.9-1.2-1.3-1.4-.4-4.3 14.5.6 29 14.6 35.3 7.2 3.2 14.7 2.7 22 .5 9-2.7 14.4-9.8 18.5-17.9 6.8-13.5-2.6-31.4-15.8-36.8-8.3-3.4-17.5-4.2-25.3.9-6.3 4.1-13.1 11-13.6 18.9-.1 1 1.4 1 1.5 0z"/>
  <path d="M71.5 27.3c6.9 7.8 5.6 18.8.4 27.1-.5.8.8 1.6 1.3.8 5.6-8.9 6.7-20.6-.6-28.9-.7-.8-1.8.3-1.1 1z"/>
</svg>
