<svg xmlns="http://www.w3.org/2000/svg" viewBox="0 0 100.8 99.2">
  <path d="M59.5 79.4h-.1m-3 .6c-.1.1-.2.1-.3.2m-1.7 1.6c-.1.1-.2.3-.2.4m0 0c-.1.2-.2.4-.3.7m0 .1c-.4 1.2-.4 2.5-.3 3.5m0 0c0 .5.1.8.1.9m-.1 0c-.1.1-.2.3-.3.4m-.2.2c-.1.1-.1.2-.2.4m-2 .3h-.4c-.3 0-.7.1-1 .1M40 79.6h-.2m2 2.7c1 .9.9 2 .9 3.2-.1 1.3-.2 2.5.6 3.5m2-53.3c1.2-.6 2.6-.8 4-.7 1.6 0 3.3.4 4.5.9 1.5.6 2.7 1.4 3.8 2.4 1 1 1.9 2.2 2.4 3.7.2.6.5 1.1.6 1.6.6 1.4 1 2.4 1.2 4.4.2 1.8.2 3.2-.1 4.6-.3 1.4-1 2.6-2.2 4.1-.2.2-.3.4-.4.7-.3.6-.5 1.2-1.6 1.9l-.1.4-.5.1c-.3 0-.6.2-1 .5-.9.6-2.1 1.3-4.5 1.4-.5 0-1.1.1-1.7.2-1.7.2-3.6.5-5.3-.2-1.3-.5-2.9-1.3-4.4-2.2-1.2-.7-2.2-1.6-2.9-2.5-1-1.3-1.8-3.1-2.2-5-.5-2-.6-4.1-.4-5.9.2-1.3 1.3-3.2 2.6-4.9 1.4-1.8 3.2-3.4 4.4-4 .4-.2 1-.4 1.5-.6 1-.4 1.8-.7 2.3-.9zm14.4 43.8h-.6c-.4.1-.8.1-1.2.3-.2 0-.3.1-.4.3h-.1l-.2.1-1.2.1H55.2l-.1.1-.1.1-.1.1.2.4-.1.1-.1.1-.1.1-.1.1-.1.1-.1.1-.1.2c-.1.1-.2.3-.2.4-.1.2-.2.4-.3.7v.1c-.4 1.2-.4 2.5-.3 3.5v.1c0 .4.1.7.1.8-.1.1-.2.3-.3.4 0 .1-.1.1-.1.2s0 .1-.1.2h-1.1c-.3 0-.7 0-1 .1H46c-.5-.6-.4-1.5-.4-2.4 0-.8.1-1.6 0-2.3-.1-.9-.5-1.7-1.3-2.3l-.1-.1-.2-.2c-.3-.2-.7-.4-1.1-.5h-.1l-.1-.1h-.4c-3.3-.3-4.8 2.4-5.7 4.1-.2.4-.3.7-.4.8-.2 0-.4.1-.5.2-.2 0-.4.1-.6.3-.2.1-1.2-.3-2.3-.8-1.4-.6-2.8-1.5-3.7-2.2l-.6.7.6-.7c-.2-.2-.4-.3-.5-.4-.9-1.1-.2-2.1.5-3.2.9-1.4 1.9-2.9 1-4.9 0-.1 0-.2-.1-.2-.2-.4-.4-.7-.7-1.1-.2-.3-.5-.6-.8-.9-.1-.1-.3-.2-.4-.2-2.7-1.9-5.3-.3-7 .7-.4.2-.6.5-.7.5-.2-.1-.4-.1-.5-.1-.2-.1-.4-.1-.6-.1-.2 0-.9-.8-1.6-1.8-.9-1.2-1.7-2.7-2.1-3.8-.1-.3-.2-.5-.2-.6-.2-1.4.9-1.9 2-2.5 1.5-.8 3.1-1.5 3.4-3.7v-.3c0-.4 0-.8-.1-1.2-.1-.4-.1-.8-.3-1.3 0-.2-.1-.3-.3-.4-1.4-3-4.5-2.9-6.4-2.9-.5 0-.8.1-.9.1-.1-.2-.3-.3-.4-.3-.1-.2-.3-.3-.5-.4-.2-.1-.3-1.2-.4-2.4-.1-1.5-.1-3.2.1-4.3V47c0-.3.1-.5.2-.6.5-1.3 1.7-1.2 3-1.2 1.7.1 3.5.2 4.8-1.5l.2-.2c.2-.4.4-.7.6-1.2v-.1c.1-.3.2-.7.3-1.1v-.5c.3-3.3-2.4-4.8-4.1-5.7-.4-.2-.7-.3-.8-.4 0-.2-.1-.4-.2-.5 0-.2-.1-.4-.3-.6-.1-.2.3-1.2.8-2.3.6-1.4 1.5-2.8 2.2-3.7v-.1l.4-.4c1.1-.9 2.1-.2 3.2.5 1.4.9 2.9 1.9 4.9 1.1.1 0 .2-.1.3-.1.4-.2.7-.4 1.1-.7.3-.2.6-.5.9-.8.1-.1.2-.3.2-.4 1.9-2.7.3-5.3-.7-7-.2-.4-.5-.6-.5-.7.1-.2.1-.4.1-.5.1-.2.1-.4.1-.6 0-.2.8-.9 1.8-1.6 1.2-.9 2.7-1.7 3.8-2.1.3-.1.5-.2.6-.2 1.4-.2 1.9.9 2.5 2 .8 1.5 1.5 3.1 3.7 3.4h.3c.4 0 .8 0 1.2-.1.4-.1.8-.1 1.2-.3.2 0 .3-.1.4-.3 3-1.4 2.9-4.5 2.9-6.4 0-.5-.1-.8-.1-.9.2-.2.3-.3.3-.4.2-.1.3-.3.4-.5.1-.2 1.2-.3 2.4-.4 1.5-.1 3.2-.1 4.3.1-2.4-1-2.2-1-2-.9 1.3.5 1.2 1.7 1.2 3-.1 1.7-.2 3.5 1.5 4.8l.2.2c.3.2.7.4 1.1.5.4.1.8.3 1.2.4h.5c3.3.3 4.8-2.4 5.7-4.1.2-.4.3-.7.4-.8.2 0 .4-.1.5-.2.2 0 .4-.1.6-.3.2-.1 1.2.3 2.3.8 1.4.6 2.8 1.5 3.7 2.2.2.2.4.3.4.4.9 1.1.2 2.1-.5 3.2-.8 1.4-1.8 2.8-.9 4.8 0 .1.1.2.1.3.2.4.4.7.7 1 .2.3.5.6.9.9.1.1.3.2.4.2 2.7 1.9 5.3.3 7-.7.4-.2.6-.5.7-.5.2.1.4.1.5.1.2.1.4.1.6.1.2 0 .9.8 1.6 1.8.9 1.2 1.7 2.7 2.1 3.8.1.3.2.5.2.6.2 1.4-.9 1.9-2 2.5-1.5.8-3.1 1.5-3.4 3.7v.3c0 .4 0 .8.1 1.3.1.4.1.8.3 1.2 0 .2.1.3.3.4 1.4 3 4.5 2.9 6.4 2.9.5 0 .8-.1.9-.1.1.2.3.3.4.3.1.2.3.3.5.4.2.1.3 1.2.4 2.4.1 1.5.1 3.2-.1 4.3 0 .3-.1.5-.2.6-.5 1.3-1.7 1.2-3 1.2-1.7-.1-3.5-.2-4.8 1.5l-.2.2c-.2.4-.4.7-.6 1.2-.1.4-.3.8-.4 1.2v.5c-.3 3.3 2.4 4.8 4.1 5.7.4.2.7.3.8.4 0 .2.1.4.2.5 0 .2.1.4.3.6.1.2-.3 1.2-.8 2.3-.6 1.4-1.5 2.8-2.2 3.7-.2.2-.3.4-.5.5-1.1.9-2.1.2-3.2-.5-1.4-.9-2.9-1.9-4.9-1-.1 0-.2 0-.2.1-.4.2-.7.4-1.1.7-.3.2-.6.5-.9.8-.1.1-.2.3-.2.4-1.9 2.7-.3 5.3.7 7 .3.4.5.6.5.7-.1.2-.1.4-.1.5-.1.2-.1.4-.1.6 0 .2-.8.9-1.8 1.6-1.2.9-2.7 1.7-3.8 2.1-.3.1-.5.2-.6.2-1.4.2-1.9-.9-2.5-2-.4-1.2-1.2-2.8-3.3-3zm-19 2.1l.2.1h.5l.1.1h.1l.1.1c1 .9.9 2.1.9 3.2-.1 1.3-.2 2.5.5 3.5v.1l.1.1.1.1.1.1.1.1.1.1.1.1.1.1.1.1.1.1.1.1.1.1.1.1.1.1.1.1.1.1.1.1.1.1.1.1H49.4c.5 0 1 0 1.5-.1.2 0 .4 0 .5-.1H55l.1-.1.1-.1.2-.2c.3-.1.4-.4.4-.6l.1-.1-1.6-1.2.6.6v-.1c.1-.4.1-.9.1-1.5v-.1h-.9.9c0-1.6-.1-4 2.1-4.9h.1c.1-.1.2-.1.4-.1l.2-.1c.8-.1 1.4 0 1.9.2.9.4 1.3 1.3 1.8 2.1.8 1.7 1.6 3.3 4.3 2.9.3 0 .6-.1 1-.3 1.2-.4 2.8-1.3 4.2-2.3 1.3-.9 2.4-2 2.6-2.9.2-.3.2-.5.1-.8v-.1l-.6-.6.9.2c.1-.6-.2-1.2-.7-2-.8-1.3-2.1-3.4-.7-5.3.2-.2.4-.5.6-.6 1.8-1.5 3.1-.6 4.3.2 1.6 1 3.1 2 5.2.4.2-.2.5-.4.7-.7.8-.9 1.8-2.6 2.5-4 .7-1.5 1.1-3 .8-3.8 0-.3-.1-.5-.3-.7v-.1c-.2-.6-.8-.9-1.6-1.4-1.4-.7-3.5-1.9-3.2-4.3 0-.3.1-.6.2-.8.9-2.2 2.4-2.1 3.8-2 1.9.1 3.7.2 4.7-2.2.1-.3.2-.6.3-1 .2-1.2.3-3.1.1-4.7-.1-1.6-.5-3.1-1.2-3.7-.1-.3-.4-.4-.6-.5l-.1-.1c-.5-.4-1.2-.4-2.1-.4-1.6 0-4 .1-4.9-2.1-.1-.3-.2-.5-.3-.8-.4-2.4 1-3 2.3-3.7 1.7-.8 3.3-1.6 2.9-4.3 0-.3-.1-.6-.3-1-.4-1.1-1.3-2.8-2.3-4.2-.9-1.3-2-2.4-2.9-2.6-.3-.2-.5-.2-.8-.1h-.1l-.3.8.2-.9c-.6-.1-1.2.2-2 .7-1.3.8-3.4 2.1-5.3.7-.2-.2-.5-.4-.6-.6-1.5-1.8-.6-3.1.2-4.3 1-1.6 2-3.1.4-5.2-.2-.2-.4-.5-.7-.7l-.6.7.6-.7c-.9-.8-2.6-1.8-4-2.5-1.5-.7-3-1.1-3.8-.8-.3 0-.5.1-.7.3h-.1l.3.8-.3-.8c-.6.2-.9.8-1.4 1.6-.7 1.4-1.9 3.5-4.2 3.2-.3 0-.6-.1-.8-.2-2.2-.9-2.1-2.4-2-3.8.1-1.9.2-3.7-2.2-4.7-.3-.1-.6-.2-1-.3-1.2-.2-3.1-.3-4.7-.1-1.6.1-3.1.5-3.7 1.2-.3.1-.4.4-.5.6l-.1.1c-.4.5-.4 1.2-.4 2.1 0 1.6.1 4-2.1 4.9-.3.1-.5.2-.8.3-2.4.4-3-1-3.7-2.3-.8-1.7-1.6-3.3-4.3-2.9-.3 0-.6.1-1 .3-1.2.4-2.8 1.3-4.2 2.3-1.3.9-2.4 2-2.6 2.9-.2.3-.2.5-.1.8v.2l.9.2-.9-.2c-.1.6.2 1.2.7 2 .8 1.3 2.1 3.4.7 5.3l-.6.6c-1.8 1.5-3.1.6-4.3-.2-1.6-1-3.1-2-5.2-.4l-.7.7-.1.1.7.6-.7-.6c-.8.9-1.8 2.6-2.5 4-.7 1.5-1.1 2.9-.8 3.8 0 .3.1.5.3.7v.1c.2.6.8.9 1.6 1.4 1.4.7 3.5 1.9 3.2 4.3 0 .3-.1.6-.2.8-.9 2.2-2.4 2.1-3.8 2-1.9-.1-3.7-.2-4.7 2.2-.1.3-.2.6-.3 1l.9.1-.8.1c-.2 1.2-.3 3.1-.1 4.7s.5 3.1 1.2 3.7c.1.3.4.4.6.5l.1.1c.5.4 1.2.4 2.1.4 1.6 0 4-.1 4.9 2.1.1.3.2.5.3.8.4 2.4-1 3-2.3 3.7-1.7.8-3.3 1.6-2.9 4.3 0 .3.1.6.3 1 .4 1.1 1.3 2.8 2.3 4.2.9 1.3 2 2.4 2.9 2.6.2-.1.4-.1.7-.1h.2l.2-.9-.3.9c.6.1 1.2-.2 2-.7 1.3-.8 3.4-2.1 5.3-.7.2.2.5.4.6.6 1.5 1.8.6 3.1-.2 4.3-1 1.6-2 3.1-.4 5.2.2.2.4.5.7.7.9.8 2.6 1.8 4 2.5 1.5.7 2.9 1.1 3.8.8.3 0 .5-.1.8-.3h.1l-.1-.9.3.8c.6-.2.9-.8 1.4-1.6.8-1.4 1.9-3.5 4.3-3.2.2 0 .4 0 .7.1zM25.2 17.1h0zM12.3 32.8l.2-.2-.2.2zm4.8 39.6v-.1.1zm32.2-35.7c-1.2 0-2.3.1-3.2.6-.6.3-1.4.6-2.2.9l-1.5.6c-1 .4-2.5 1.8-3.8 3.5-1.2 1.5-2.1 3-2.2 4-.2 1.6 0 3.5.4 5.3.4 1.6 1 3.2 1.9 4.3.6.8 1.5 1.5 2.5 2.1 1.4.9 2.9 1.6 4.1 2 1.3.5 3 .3 4.5.1.6-.1 1.2-.2 1.8-.2 2-.1 2.9-.7 3.7-1.1.4-.2.7-.5 1.1-.6.1 0 .1-.1.2-.2.7-.5.9-.9 1.1-1.3.1-.3.3-.6.6-1 1-1.3 1.6-2.4 1.8-3.5.3-1.1.3-2.4.1-4-.2-1.8-.6-2.7-1.1-3.9-.2-.5-.4-1-.7-1.7-.5-1.2-1.1-2.3-2-3.1-.9-.8-1.9-1.5-3.2-2-1-.5-2.5-.8-3.9-.8z"/>
</svg>
