<svg xmlns="http://www.w3.org/2000/svg" viewBox="0 0 100 99.2">
  <path d="M50 51.3c-6.3-.2-12.4 1.2-18.2 3.5-6.8 2.6-12.5 6.8-17.2 12.4-2.7 3.2-5.9 6-8.1 9.7-.3.4-.6.9-1.3.6-.6-.3-.6-.8-.5-1.3.3-1.4.6-2.9 1.2-4.3 2.5-6 5.6-11.8 8.9-17.4 3.7-6.3 8.3-11.7 14.4-15.7 4.6-3 9.4-5 14.9-5.5 5.2-.4 10.4-1.5 15.7-1.5 1.1 0 1.9-.3 1.9-1.5.1-2.3 1.3-4.5.3-6.9-.3-.6-.2-1.3.4-1.7.7-.5 1.4-.4 2 .1.7.5 1.3 1 2 1.6 6.1 5 12.3 9.9 18.7 14.5 2.7 1.9 5.6 2.8 8.7 3.7.9.3 2-.1 2.1 1.4 0 1.4-.7 1.9-2 2.4-3.2 1.2-6.3 2.4-9.3 4-7.4 4.1-15 7.8-21.5 13.2-.5.5-1 .8-1.7.5-.7-.2-.9-.8-.9-1.5.1-1.8 0-3.6.2-5.4.4-3.3-.3-4.1-3.6-4.6-2.3-.5-4.7-.4-7.1-.3zm12.5 8.9c9.8-6.2 19.3-11.8 29.8-16.6C81.2 38.9 73.5 30.2 63.9 24c-.3 2.7-.6 5.1-.7 7.6-.1 1.2-.5 1.7-1.7 1.7-4.9 0-9.6.8-14.5 1.3-4.3.4-8.6 1-12.5 3-7.6 3.9-13.6 9.5-17.8 17-1.7 2.9-3.3 5.9-4.9 8.9-.9 1.9-1.7 3.8-2.7 6.3 2-1.3 3.2-2.5 4.3-3.8 2.9-3.4 6.2-6.3 9.9-8.8 7.8-5.3 16.6-7.5 25.9-8 3.7-.2 7.4 0 11 .6 2.2.4 2.5.9 2.3 3.2-.1 2.2-.4 4.4 0 7.2z"/>
</svg>
