
Open SVG
Paste markup
Demo
Contribute
About
Powered by the incredible SVGO


728 bytes → 490 bytes 67.31%
<svg xmlns="http://www.w3.org/2000/svg" viewBox="0 0 100 101.2">
  <path d="M92.7 33.2c-11.2-.5-22.3-1-33.5-1.5-2.8-8.3-5.5-16.6-8-24.9-.7-2.2-4.3-2.5-4.8 0-1.7 8.2-4 16.2-6.8 24.1-10.8-.4-21.6-.8-32.3-1.2-1.8-.1-3.2 2.2-2.2 3.8 6.2 9.5 15.1 16.3 24.2 22.9-2.5 5.8-4.9 11.7-7.7 17.3-2.8 5.7-5.4 11.4-5.7 17.9-.1 1.8 2.2 3.3 3.8 2.2C29.4 86.4 39.2 79 49 71.6c8.8 7.3 17.3 15 25.8 22.6 1.8 1.6 5 .1 4.2-2.4-3.6-11.5-7.3-22.9-11.2-34.3 8.7-6.5 17.4-13.1 26.1-19.6 2-1.5 1.4-4.6-1.2-4.7zM47.9 66.3c-8.7 6.5-17.3 13-26 19.6 1.1-3.9 3-7.5 4.8-11.1 2.9-5.9 5.3-12 7.9-18 .6-1.4.3-2.5-.9-3.4-7.6-5.5-15.3-11.1-21.2-18.5 9.6.3 19.2.7 28.8 1.1 1.2 0 2-.8 2.4-1.8 2-5.7 3.9-11.4 5.4-17.3 1.9 6 3.9 12 5.9 17.9.4 1.1 1.2 1.8 2.4 1.8 9.4.4 18.9.8 28.3 1.3-7.3 5.5-14.7 11-22 16.6-.1 0-.1.1-.2.2-.9.5-1.4 1.4-1 2.7 3.1 9.1 6.1 18.1 9 27.2-6.8-6.1-13.6-12-20.6-17.8-.8-.8-2.1-1.2-3-.5z"/>
</svg>
