<svg xmlns="http://www.w3.org/2000/svg" viewBox="0 0 71 71">
  <path d="M16.3 30.4c-2.2-9.1 12.6-18.1 20.2-18.7 4.8-.5 9.6 1.6 12.5 5.5.9 1.2 1.6 2.5 2.3 3.7-.7.3-1.3.7-2 1.1-.8-.1-1.6.4-1.7 1.3v.4c-.1.8.4 1.6 1.2 1.7h.2l1.6.1c1.4.6 2.7 1.4 3.8 2.4.6.6 1.6.6 2.1 0 .2-.2.3-.4.4-.6.9-2.3 1.4-4.7 1.4-7.1 0-.8-.7-1.5-1.5-1.5-.1 0-.3 0-.4.1-.9.3-1.7.6-2.6.9-2.3-3.5-4.1-7.1-8.3-9.2-4.4-2-9.4-2.4-14-.9-8.1 2.5-20.5 11.7-18.1 21.6.5 1.9 3.4 1.1 2.9-.8zM55.1 42.1c2.2 9.1-12.6 18.1-20.2 18.7-4.8.5-9.6-1.6-12.5-5.4-.9-1.2-1.6-2.5-2.3-3.7.7-.3 1.3-.7 2-1.1 1 0 1.8-.8 1.8-1.7 0-.8-.6-1.6-1.4-1.7l-1.6-.1c-1.4-.6-2.7-1.4-3.9-2.4-.6-.6-1.6-.6-2.1 0-.2.2-.3.4-.4.6-.9 2.3-1.4 4.7-1.4 7.1 0 .8.7 1.5 1.5 1.5.1 0 .3 0 .4-.1.9-.3 1.7-.6 2.6-.9 2.3 3.5 4.1 7.2 8.3 9.2 4.4 2 9.4 2.4 14 .9C48 60.4 60.4 51.2 58 41.3c-.5-1.9-3.4-1.1-2.9.8z"/>
</svg>
