<svg version="1.1" xmlns="http://www.w3.org/2000/svg" x="0" y="0" viewBox="0 0 100 101.2" xml:space="preserve" style="stroke: blue">

  <path d="M20.8 8.7c7.9 3.3 16.7.4 24.9.3 11.4-.2 22.9.9 34.3.7 1 0 1-1.5 0-1.5-10.8.2-21.6-.7-32.4-.7-8.6-.1-18.2 3.2-26.4-.2-.9-.4-1.3 1.1-.4 1.4z"/>
  <path d="M9 33.2c1-9.4 6.4-17.2 11.1-25.1.5-.8-.8-1.6-1.3-.8-4.9 8.3-10.2 16.2-11.3 25.9-.1 1 1.4 1 1.5 0zM80 9.9c3.2 8.2 5.4 16.7 9.6 24.4.5.8 1.8.1 1.3-.8-4.2-7.6-6.3-16-9.4-24.1-.4-.7-1.8-.4-1.5.5z"/>
  <path d="M7.6 33.9c3.2 4.1 7.1 7.1 9.9 11.5 3.5 5.4 6.8 10.9 10.8 16.1 3.9 5.1 7.7 10.3 11.5 15.4 3.5 4.7 7.8 8.8 10.8 14 .4.6 1.4.4 1.4-.4v-1c0-1-1.5-1-1.5 0v1c.5-.1.9-.3 1.4-.4-2.5-4.2-5.7-7.8-8.9-11.6-4.4-5.2-8.2-10.8-12.2-16.2-3.9-5.2-7.5-10.5-10.9-16-1.3-2.1-2.5-4.4-4.1-6.2-2.2-2.4-4.8-4.4-6.8-7-.7-.7-2 0-1.4.8z"/>
  <path d="M51.9 89.9c7.9-10.3 15.8-20.6 23-31.4 3.5-5.2 6.8-10.5 10-15.9 1.8-3 5.1-5.4 6.1-8.9.3-.9-1.2-1.3-1.4-.4-1 3.5-4.5 6.2-6.4 9.3-3.1 5.1-6.3 10.1-9.5 15.1-7.1 10.9-15.1 21.1-23 31.4-.7.8.6 1.5 1.2.8z"/>
  <path d="M9.6 34.2c6.4.9 12.7.9 19.2.7 7.6-.2 15 .2 22.6.6 6.6.3 13.1.4 19.7.5 6.1.2 12.2.6 18.3-.8.9-.2.5-1.7-.4-1.4-5.9 1.4-11.9 1-17.9.8-6.6-.2-13.1-.2-19.7-.5-6.3-.3-12.5-.8-18.8-.7-7.6.1-15 .5-22.6-.6-1-.2-1.4 1.3-.4 1.4z"/>
  <path d="M32 35.2c3.9 10.3 7.6 20.3 9.5 31.1.7 4 1.4 7.9 2.4 11.8.5 1.8 1 4.4 2.7 5.5.8.5 1.6-.8.8-1.3-2-1.4-2.4-6.5-2.9-8.6-.8-3.6-1.4-7.3-2-11-1.7-9.7-5.5-18.8-9-27.9-.4-.9-1.8-.5-1.5.4zM66 35.8c-2.3 11.6-6.6 22.5-9.2 34-.8 3.5-1.5 6.9-2.3 10.4-.4 1.7-1 7.9-2.6 9-.8.5-.1 1.8.8 1.3 1.4-.9 1.7-3.6 2.1-5 1.2-4.3 2.1-8.6 3-12.9 2.7-12.2 7.3-24 9.7-36.3.2-1-1.3-1.4-1.5-.5zM67.8 33.5C71 30 73.1 25.1 75.4 21c1.1-2 5.5-7.9 4.3-10.4-.4-.9-1.7-.1-1.3.8.2.5-1.3 3.1-1.6 3.7-1.1 2.3-2.3 4.5-3.6 6.8-1.9 3.5-3.8 7.6-6.5 10.6-.6.7.4 1.8 1.1 1zM34 33c5.6-7.2 11.1-14.4 15.9-22.2.5-.8-.8-1.6-1.3-.8-4.7 7.8-10.1 14.9-15.6 22-.6.7.4 1.8 1 1z"/>
  <path d="M18.9 9.1c2.8 3.6 4.8 7.6 7 11.6 2.2 4.1 5.3 8 6.8 12.4.2.8 1.2.7 1.4 0 .1-.2.1-.3.2-.5.4-.9-1.1-1.3-1.4-.4-.1.2-.1.3-.2.5h1.4c-1.4-4.1-4-7.7-6.2-11.4-2.5-4.4-4.6-8.9-7.7-12.9-.6-.8-1.9 0-1.3.7zM49.1 10.1c3.2 5.2 5.7 10.7 8.8 16 1 1.7 4.5 9.1 7.5 7.8.9-.4.1-1.7-.8-1.3-2.4 1-12.7-20.7-14.2-23.2-.5-.9-1.8-.1-1.3.7z"/>
</svg>
